<?xml version="1.0" encoding="utf-8"?>
<!-- Generator: Adobe Illustrator 27.2.0, SVG Export Plug-In . SVG Version: 6.00 Build 0)  -->
<svg version="1.1" id="Layer_1" xmlns="http://www.w3.org/2000/svg" xmlns:xlink="http://www.w3.org/1999/xlink" x="0px" y="0px"
	 viewBox="0 0 16 16" style="enable-background:new 0 0 16 16;" xml:space="preserve">
<style type="text/css">
	.st0{fill:#FFFFFF;stroke:#000000;stroke-width:0.25;stroke-miterlimit:10;}
	.st1{fill:#FFFFFF;stroke:#000000;stroke-width:0.5;stroke-miterlimit:10;}
</style>
<path d="M-1.4,1.9h-0.26c-0.28,0-0.56,0.02-0.82,0.06c-0.6-1.41-2.01-2.41-3.64-2.41c-0.83,0-1.61,0.26-2.25,0.7
	c-0.64-0.44-1.41-0.7-2.25-0.7c-1.65,0-3.06,1.01-3.64,2.43c-0.34-0.06-0.68-0.08-1.03-0.08h-0.24v2.8c0,2.39,1.93,4.31,4.31,4.31
	h2.27v5.34h0.99V9.02h2.27c2.39,0,4.31-1.93,4.31-4.31V2.16L-1.4,1.9z M-6.11,0.05c1.39,0,2.58,0.82,3.12,1.99
	C-3.66,2.16-4.28,2.4-4.86,2.72c-0.56-1.15-1.65-1.99-2.96-2.19C-7.32,0.21-6.72,0.05-6.11,0.05z M-8.06,6.38
	c-0.04,0.08-0.06,0.18-0.1,0.26C-8.18,6.71-8.2,6.79-8.22,6.85c-0.1,0.34-0.16,0.68-0.2,1.03h-0.04c-0.02-0.32-0.1-0.64-0.18-0.93
	c-0.04-0.18-0.1-0.34-0.16-0.52V6.41c-0.28-0.74-0.66-1.43-1.17-2.03c-0.46-0.56-0.99-1.03-1.61-1.39c0.44-0.95,1.29-1.69,2.35-1.91
	c0.26-0.08,0.52-0.12,0.8-0.12c0.06,0,0.12,0,0.18,0.02c0.3,0,0.58,0.06,0.83,0.16C-6.47,1.4-5.71,2.1-5.31,2.98
	c-0.52,0.34-0.99,0.74-1.39,1.19C-7.3,4.8-7.76,5.56-8.06,6.38z M-10.6,0.05c0.62,0,1.17,0.16,1.67,0.46
	c-1.37,0.16-2.51,1.01-3.08,2.21c-0.54-0.28-1.11-0.5-1.73-0.64C-13.21,0.89-11.99,0.05-10.6,0.05z M-15.02,4.71V2.4
	c0.2,0,0.42,0.02,0.62,0.04c0.16,0.02,0.34,0.06,0.5,0.1c0.6,0.12,1.17,0.34,1.71,0.64c0.16,0.08,0.32,0.18,0.46,0.28
	c1.15,0.76,2.05,1.89,2.5,3.22c0.06,0.16,0.1,0.34,0.14,0.52c0.06,0.2,0.1,0.42,0.12,0.64c0.04,0.16,0.06,0.34,0.06,0.52
	c0.02,0.06,0.02,0.12,0.02,0.18h-2.31C-13.31,8.52-15.02,6.81-15.02,4.71z M-1.85,4.71c0,2.11-1.71,3.82-3.82,3.82h-2.31
	c0-0.06,0-0.12,0.02-0.18c0-0.18,0.02-0.34,0.06-0.52c0.02-0.24,0.06-0.48,0.14-0.72c0.04-0.18,0.08-0.34,0.16-0.5
	c0.44-1.29,1.31-2.41,2.47-3.14c0.14-0.12,0.3-0.2,0.46-0.28c0.58-0.32,1.19-0.56,1.87-0.68c0.16-0.04,0.32-0.06,0.5-0.08
	c0.14-0.02,0.3-0.04,0.46-0.04V4.71z"/>
<circle class="st0" cx="20.56" cy="3.98" r="1.87"/>
<circle class="st0" cx="22.82" cy="3.98" r="1.87"/>
<circle class="st0" cx="21.65" cy="4.44" r="1.87"/>
<path class="st0" d="M21.55,6.63h-1.28c-1.13,0-2.05-0.92-2.05-2.05V3.3h0.03c1.83,0,3.31,1.48,3.31,3.31V6.63z"/>
<path class="st0" d="M21.76,6.63h1.28c1.13,0,2.05-0.92,2.05-2.05V3.3h-0.03c-1.83,0-3.31,1.48-3.31,3.31V6.63z"/>
<line class="st1" x1="21.65" y1="6.63" x2="21.65" y2="9.44"/>
<path d="M13.54,4.2h-0.38c-0.18,0-0.38,0.02-0.56,0.03c-0.53-1.03-1.6-1.72-2.84-1.72c-0.62,0-1.21,0.18-1.71,0.5
	c-0.5-0.32-1.09-0.5-1.71-0.5c-1.24,0-2.31,0.71-2.84,1.74C3.29,4.22,3.05,4.2,2.8,4.2H2.43v2.31C2.43,8.43,4,9.99,5.9,9.99h1.73
	v3.86h0.76V9.99h1.72c1.92,0,3.47-1.56,3.47-3.47V4.58L13.54,4.2z M10.1,9.23H9.25H8.56c0-0.06,0.02-0.12,0.02-0.18
	C8.59,8.93,8.6,8.81,8.63,8.69V8.64c0.06-0.23,0.12-0.45,0.21-0.68c0.3-0.83,0.85-1.56,1.56-2.08c0.11-0.08,0.21-0.15,0.33-0.23
	c0.11-0.08,0.23-0.14,0.35-0.2c0.32-0.17,0.66-0.29,1.03-0.38c0.23-0.05,0.47-0.09,0.71-0.11v1.54c0,0.06,0,0.14-0.02,0.2
	C12.71,8.11,11.53,9.23,10.1,9.23z M5.9,9.23c-1.5,0-2.72-1.22-2.72-2.72V6.03V5.37C3.2,5.23,3.23,5.09,3.26,4.96
	c0.26,0.03,0.51,0.08,0.76,0.14c0.33,0.09,0.63,0.2,0.92,0.36C5.05,5.5,5.18,5.56,5.28,5.64C5.4,5.71,5.51,5.79,5.61,5.86
	c0.71,0.54,1.27,1.27,1.57,2.13c0.09,0.21,0.15,0.42,0.2,0.65c0,0.03,0,0.05,0.02,0.08c0.02,0.11,0.03,0.23,0.05,0.33
	c0,0.06,0.02,0.12,0.02,0.18H6.76H5.9z M8.2,7.54C8.12,7.71,8.06,7.89,8.02,8.05C7.97,7.9,7.91,7.75,7.85,7.6
	C7.56,6.88,7.12,6.23,6.57,5.71V5.7C6.35,5.5,6.11,5.31,5.87,5.14c0.24-0.47,0.65-0.86,1.15-1.07c0.29-0.14,0.59-0.2,0.92-0.21H8
	c0.06,0,0.11,0,0.17,0.02c0.36,0.02,0.69,0.12,1,0.3c0.42,0.21,0.76,0.54,0.97,0.97c-0.2,0.14-0.39,0.29-0.57,0.45
	C8.97,6.12,8.5,6.79,8.2,7.54z M9.77,3.27c0.86,0,1.62,0.44,2.04,1.12c-0.36,0.09-0.69,0.21-1.01,0.38
	c-0.35-0.65-0.92-1.16-1.6-1.42C9.37,3.3,9.57,3.27,9.77,3.27z M6.35,3.27c0.17,0,0.35,0.02,0.51,0.05C6.16,3.58,5.57,4.1,5.21,4.76
	C4.92,4.61,4.62,4.5,4.3,4.41C4.72,3.72,5.48,3.27,6.35,3.27z"/>
</svg>
