<?xml version="1.0" encoding="utf-8"?>
<!-- Generator: Adobe Illustrator 27.2.0, SVG Export Plug-In . SVG Version: 6.00 Build 0)  -->
<svg version="1.1" id="Layer_1" xmlns="http://www.w3.org/2000/svg" xmlns:xlink="http://www.w3.org/1999/xlink" x="0px" y="0px"
	 viewBox="0 0 1224 792" style="enable-background:new 0 0 1224 792;" xml:space="preserve">
<style type="text/css">
	.st0{clip-path:url(#SVGID_00000033341862460789209770000011548889654440608384_);}
	.st1{fill:none;stroke:#AAD32D;stroke-width:0.5;stroke-miterlimit:10;}
	.st2{clip-path:url(#SVGID_00000106852242512540960160000017399162495693970328_);}
</style>
<g>
	<g>
		<g>
			<defs>
				<rect id="SVGID_1_" x="0.54" width="1222.91" height="792"/>
			</defs>
			<clipPath id="SVGID_00000048493697647440366700000006350369361633049232_">
				<use xlink:href="#SVGID_1_"  style="overflow:visible;"/>
			</clipPath>
			<g style="clip-path:url(#SVGID_00000048493697647440366700000006350369361633049232_);">
				<g>
					<path class="st1" d="M1100.78,742.89c18.41-30.3,16.38-99.8,4.57-165.01s-33.4-126.12-54.13-139.24
						c-23.38-14.8-87.37-5.93-149.66,13.44s-122.86,49.25-139.4,76.46c-33.07,54.42,35.05,135.22,119.71,188.81
						c42.33,26.79,88.79,46.78,128.8,53.27S1084.24,770.1,1100.78,742.89z"/>
					<path class="st1" d="M1048.78,442.66c-23.36-14.79-85.89-6.36-146.71,12.55s-119.93,48.33-136.45,75.52
						c-14.45,23.78-10.03,52.44,6.31,81.62c11.5,20.52,28.91,41.24,50.11,60.42c18.64,16.83,40.19,32.05,62.5,45.53
						c41.52,25.09,86.46,44.29,125.37,50.14c38.77,5.83,71.28-1.19,87.41-27.73c18.32-30.15,16.59-98.07,5.08-161.75
						S1069.6,455.84,1048.78,442.66z"/>
					<path class="st1" d="M1046.34,446.68c-23.34-14.77-84.4-6.8-143.76,11.66s-117,47.41-133.51,74.57
						c-14.52,23.9-10.45,52.58,5.33,81.71c11.25,20.76,28.48,41.65,49.76,60.63c18.82,16.73,40.74,31.17,63.05,44
						c40.68,23.4,84.13,41.8,121.95,47c37.52,5.16,68.99-1.85,84.72-27.74c18.23-30.01,16.8-96.35,5.58-158.5
						C1088.23,517.86,1067.23,459.91,1046.34,446.68z"/>
					<path class="st1" d="M1043.9,450.7c-23.32-14.76-82.92-7.24-140.81,10.77c-57.89,18-114.07,46.49-130.57,73.63
						c-14.6,24.02-10.87,52.73,4.35,81.8c11,21.01,28.05,42.05,49.4,60.84c19,16.63,41.28,30.28,63.61,42.47
						c39.81,21.74,81.79,39.3,118.52,43.86c36.27,4.5,66.7-2.52,82.02-27.74c18.14-29.86,17.01-94.63,6.09-155.25
						C1085.59,520.46,1064.89,463.99,1043.9,450.7z"/>
					<path class="st1" d="M1041.46,454.72c-23.3-14.75-81.43-7.67-137.86,9.88s-111.14,45.57-127.63,72.69
						c-14.67,24.14-11.29,52.88,3.37,81.88c10.75,21.26,27.62,42.46,49.04,61.05c19.18,16.54,41.8,29.39,64.17,40.95
						c38.92,20.1,79.46,36.81,115.09,40.73c35.02,3.85,64.4-3.18,79.33-27.74c18.06-29.72,17.22-92.9,6.59-152
						S1062.53,468.06,1041.46,454.72z"/>
					<path class="st1" d="M1039.02,458.74c-23.29-14.74-79.95-8.11-134.91,8.99c-54.96,17.09-108.21,44.65-124.68,71.75
						c-14.74,24.26-11.72,53.04,2.4,81.97c10.5,21.51,27.19,42.86,48.68,61.26c19.36,16.44,42.3,28.51,64.73,39.42
						c37.98,18.48,77.12,34.32,111.66,37.59c33.76,3.19,62.11-3.85,76.63-27.74c17.97-29.57,17.43-91.18,7.1-148.74
						C1080.3,525.68,1060.18,472.13,1039.02,458.74z"/>
					<path class="st1" d="M1036.57,462.76c-23.27-14.73-78.46-8.54-131.95,8.09s-105.28,43.73-121.74,70.81
						c-14.82,24.38-12.16,53.2,1.42,82.06c10.24,21.77,26.72,43.31,48.32,61.47c19.5,16.39,42.78,27.62,65.28,37.89
						c37.02,16.89,74.77,31.84,108.24,34.45c32.5,2.54,59.82-4.51,73.93-27.74c17.88-29.43,17.63-89.46,7.6-145.49
						C1077.64,528.25,1057.83,476.21,1036.57,462.76z"/>
					<path class="st1" d="M1034.12,466.77c-23.25-14.72-76.98-8.98-129,7.2c-52.02,16.18-102.35,42.81-118.8,69.87
						c-14.89,24.51-12.6,53.36,0.44,82.14c9.98,22.03,26.28,43.72,47.96,61.68c19.67,16.29,43.25,26.74,65.84,36.36
						c36.02,15.34,72.42,29.35,104.81,31.32c31.24,1.89,57.52-5.18,71.24-27.74c17.79-29.28,17.84-87.73,8.11-142.24
						C1074.99,530.85,1055.47,480.28,1034.12,466.77z"/>
					<path class="st1" d="M1031.69,470.79c-23.23-14.7-75.49-9.42-126.05,6.31s-99.42,41.89-115.85,68.93
						c-14.96,24.63-13.05,53.53-0.54,82.23c9.71,22.29,25.85,44.13,47.6,61.88c19.85,16.2,43.69,25.86,66.4,34.83
						c34.99,13.82,70.07,26.87,101.38,28.18c29.98,1.25,55.23-5.84,68.54-27.75c17.71-29.14,18.05-86.01,8.61-138.99
						C1072.34,533.44,1053.11,484.36,1031.69,470.79z"/>
					<path class="st1" d="M1029.24,474.81c-23.21-14.69-74.01-9.85-123.1,5.42c-49.09,15.27-96.49,40.97-112.91,67.98
						c-15.04,24.75-13.5,53.71-1.52,82.31c9.44,22.55,25.42,44.54,47.24,62.09c20.02,16.11,44.12,24.99,66.96,33.31
						c33.92,12.34,67.71,24.4,97.95,25.04c28.71,0.62,52.93-6.51,65.84-27.75c17.62-28.99,18.26-84.29,9.12-135.74
						C1069.69,536.04,1050.76,488.43,1029.24,474.81z"/>
					<path class="st1" d="M1026.81,478.83c-23.19-14.68-72.52-10.29-120.15,4.53c-47.63,14.81-93.56,40.05-109.97,67.04
						c-15.11,24.87-13.96,53.88-2.5,82.4c9.17,22.82,24.98,44.94,46.88,62.3c20.2,16.02,44.52,24.14,67.52,31.78
						c32.83,10.91,65.35,21.92,94.53,21.91c27.43-0.02,50.64-7.17,63.15-27.75c17.53-28.85,18.47-82.56,9.62-132.48
						C1067.04,538.63,1048.41,492.51,1026.81,478.83z"/>
					<path class="st1" d="M1024.35,482.85c-23.18-14.67-71.03-10.72-117.2,3.63c-46.16,14.36-90.63,39.13-107.02,66.1
						c-15.18,24.99-14.43,54.06-3.48,82.49c8.89,23.09,24.55,45.35,46.52,62.51c20.38,15.92,44.91,23.3,68.07,30.25
						c31.71,9.51,62.99,19.46,91.1,18.77c26.16-0.64,48.35-7.83,60.45-27.75c17.44-28.7,18.68-80.84,10.13-129.23
						S1046.05,496.58,1024.35,482.85z"/>
					<path class="st1" d="M1021.92,486.87c-23.16-14.66-69.55-11.16-114.25,2.74s-87.7,38.21-104.08,65.16
						c-15.26,25.11-14.9,54.24-4.46,82.57c8.61,23.36,24.12,45.75,46.16,62.72c20.56,15.83,45.28,22.48,68.63,28.72
						c30.55,8.17,60.62,17,87.67,15.63c24.88-1.26,46.05-8.5,57.75-27.75c17.35-28.56,18.88-79.12,10.63-125.98
						C1061.72,543.82,1043.7,500.65,1021.92,486.87z"/>
					<path class="st1" d="M1019.48,490.89c-23.14-14.65-68.06-11.6-111.29,1.85s-84.77,37.29-101.14,64.22
						c-15.33,25.23-15.38,54.43-5.44,82.66c8.32,23.63,23.69,46.16,45.8,62.93c20.73,15.73,45.64,21.68,69.19,27.19
						c29.38,6.88,58.24,14.55,84.24,12.5c23.59-1.86,43.76-9.16,55.06-27.76c17.27-28.41,19.09-77.39,11.14-122.73
						C1059.08,546.41,1041.35,504.73,1019.48,490.89z"/>
					<path class="st1" d="M1017.04,494.91c-23.12-14.64-66.58-12.03-108.34,0.96c-41.77,12.99-81.84,36.37-98.19,63.28
						c-15.4,25.35-15.87,54.61-6.42,82.75c8.02,23.91,23.26,46.56,45.44,63.14c20.91,15.63,45.98,20.91,69.75,25.66
						c28.18,5.63,55.86,12.11,80.82,9.36c22.31-2.46,41.47-9.83,52.36-27.76c17.18-28.27,19.3-75.67,11.64-119.47
						C1056.44,549.03,1038.98,508.8,1017.04,494.91z"/>
					<path class="st1" d="M1014.6,498.92c-23.1-14.62-65.09-12.47-105.39,0.07s-78.91,35.45-95.25,62.34
						c-15.48,25.47-16.36,54.8-7.4,82.83c7.73,24.18,22.83,46.96,45.09,63.35c21.09,15.53,46.3,20.18,70.3,24.14
						c26.97,4.44,53.48,9.68,77.39,6.22c21.02-3.04,39.17-10.49,49.66-27.76c17.09-28.12,19.51-73.94,12.15-116.22
						C1053.78,551.61,1036.64,512.88,1014.6,498.92z"/>
					<path class="st1" d="M1012.15,502.94c-23.08-14.61-63.61-12.9-102.44-0.83c-38.83,12.08-75.98,34.53-92.31,61.4
						c-15.55,25.59-16.85,54.99-8.38,82.92c7.42,24.46,22.41,47.36,44.73,63.56c21.27,15.44,46.62,19.49,70.86,22.61
						c25.74,3.31,51.09,7.26,73.96,3.09c19.73-3.6,36.88-11.16,46.97-27.76c17-27.98,19.72-72.22,12.65-112.97
						C1051.12,554.21,1034.28,516.95,1012.15,502.94z"/>
					<path class="st1" d="M1009.71,506.96c-23.06-14.6-62.12-13.34-99.49-1.72s-73.05,33.61-89.36,60.45
						c-15.62,25.71-17.36,55.18-9.36,83.01c7.11,24.74,21.98,47.76,44.37,63.77c21.45,15.34,46.93,18.86,71.42,21.08
						c24.51,2.22,48.71,4.87,70.54-0.05c18.43-4.15,34.59-11.82,44.27-27.76c16.91-27.83,19.93-70.5,13.16-109.72
						C1048.47,556.8,1031.93,521.03,1009.71,506.96z"/>
					<path class="st1" d="M1007.27,510.98c-23.05-14.59-60.64-13.78-96.54-2.61c-35.9,11.17-70.12,32.69-86.42,59.51
						c-15.7,25.83-17.87,55.37-10.34,83.09c6.79,25.02,21.55,48.16,44.01,63.98c21.63,15.24,47.23,18.28,71.98,19.55
						c23.28,1.19,46.32,2.49,67.11-3.19c17.14-4.68,32.29-12.49,41.58-27.77c16.83-27.69,20.14-68.77,13.66-106.46
						S1029.57,525.1,1007.27,510.98z"/>
					<path class="st1" d="M1004.83,515c-23.03-14.58-59.15-14.21-93.59-3.5c-34.44,10.71-67.19,31.77-83.48,58.57
						c-15.77,25.95-18.38,55.56-11.32,83.18c6.47,25.3,21.12,48.56,43.65,64.19c21.82,15.13,47.55,17.78,72.53,18.02
						c22.05,0.22,43.94,0.14,63.68-6.32c15.86-5.19,30-13.15,38.88-27.77c16.74-27.55,20.34-67.05,14.17-103.21
						C1043.18,562,1027.22,529.17,1004.83,515z"/>
					<path class="st1" d="M1002.39,519.02c-23.01-14.57-57.66-14.65-90.64-4.39c-32.97,10.25-64.26,30.85-80.53,57.63
						c-15.84,26.07-18.91,55.76-12.3,83.27c6.14,25.58,20.73,48.92,43.29,64.4c22.03,14.99,47.88,17.36,73.09,16.49
						c20.84-0.71,41.57-2.18,60.25-9.46c14.58-5.68,27.71-13.82,36.18-27.77c16.65-27.4,20.55-65.33,14.67-99.96
						S1024.86,533.25,1002.39,519.02z"/>
					<path class="st1" d="M999.94,523.04c-22.99-14.55-56.18-15.08-87.68-5.29c-31.51,9.8-61.33,29.93-77.59,56.69
						c-15.92,26.19-19.43,55.95-13.28,83.35c5.81,25.86,20.3,49.32,42.93,64.61c22.21,14.89,48.23,17.03,73.65,14.97
						c19.66-1.59,39.22-4.47,56.83-12.6c13.32-6.15,25.41-14.48,33.49-27.77c16.56-27.26,20.76-63.6,15.18-96.71
						C1037.89,567.18,1022.51,537.32,999.94,523.04z"/>
					<path class="st1" d="M997.5,527.06c-22.97-14.54-54.69-15.52-84.73-6.18c-30.04,9.34-58.4,29.01-74.65,55.75
						c-15.99,26.32-19.97,56.14-14.26,83.44c5.46,26.15,19.87,49.72,42.57,64.82c22.38,14.8,48.63,16.8,74.21,13.44
						c18.52-2.44,36.9-6.73,53.4-15.73c12.07-6.59,23.12-15.15,30.79-27.77c16.47-27.11,20.97-61.88,15.68-93.46
						C1035.22,569.78,1020.16,541.4,997.5,527.06z"/>
					<path class="st1" d="M995.06,531.07c-22.95-14.53-53.21-15.96-81.78-7.07s-55.47,28.09-71.7,54.81
						c-16.06,26.44-20.5,56.33-15.24,83.53c5.11,26.43,19.44,50.13,42.21,65.03c22.56,14.7,49.08,16.69,74.76,11.91
						c17.42-3.24,34.62-8.95,49.97-18.87c10.86-7.02,20.82-15.81,28.09-27.77c16.39-26.97,21.18-60.16,16.19-90.2
						C1032.57,572.38,1017.8,545.47,995.06,531.07z"/>
					<path class="st1" d="M992.62,535.09c-22.94-14.52-51.72-16.39-78.83-7.96s-52.54,27.17-68.76,53.86
						c-16.14,26.56-21.05,56.52-16.22,83.61c4.76,26.71,19.01,50.53,41.85,65.23c22.74,14.6,49.61,16.7,75.32,10.38
						c16.38-4.03,32.39-11.14,46.54-22.01c9.68-7.43,18.53-16.48,25.4-27.78c16.3-26.82,21.39-58.43,16.69-86.95
						C1029.92,574.97,1015.45,549.55,992.62,535.09z"/>
					<path class="st1" d="M1014.47,688.25c16.21-26.68,21.6-56.71,17.2-83.7s-18.57-50.94-41.49-65.44
						c-22.92-14.51-50.24-16.83-75.88-8.85c-25.64,7.98-49.61,26.25-65.82,52.92c-16.21,26.68-21.6,56.71-17.2,83.7
						c4.4,26.99,18.57,50.94,41.49,65.44s50.24,16.83,75.88,8.85C974.29,733.2,998.26,714.93,1014.47,688.25z"/>
				</g>
				<g>
					<path class="st1" d="M1026.76,93.09c-18.41,30.3-16.38,99.8-4.57,165.01s33.4,126.12,54.13,139.24
						c23.38,14.8,87.37,5.93,149.66-13.44s122.86-49.25,139.4-76.46c33.07-54.42-35.05-135.22-119.71-188.81
						c-42.33-26.79-88.79-46.78-128.8-53.27S1043.3,65.88,1026.76,93.09z"/>
					<path class="st1" d="M1361.93,305.26c14.45-23.78,10.03-52.44-6.31-81.62c-11.5-20.52-28.91-41.24-50.11-60.42
						c-18.64-16.83-40.19-32.05-62.5-45.53c-41.53-25.1-86.47-44.3-125.38-50.14c-38.77-5.83-71.28,1.19-87.41,27.73
						c-18.32,30.15-16.59,98.07-5.08,161.75c11.51,63.68,32.81,123.12,53.62,136.29c23.36,14.79,85.89,6.36,146.71-12.55
						C1286.29,361.86,1345.41,332.45,1361.93,305.26z"/>
					<path class="st1" d="M1358.47,303.07c14.52-23.9,10.45-52.59-5.33-81.71c-11.25-20.76-28.48-41.65-49.76-60.63
						c-18.82-16.73-40.74-31.17-63.05-44c-40.68-23.4-84.13-41.8-121.95-47c-37.52-5.16-68.99,1.85-84.72,27.74
						c-18.23,30.01-16.8,96.35-5.58,158.5c11.22,62.15,32.22,120.11,53.12,133.34c23.34,14.77,84.4,6.8,143.76-11.66
						C1284.33,359.19,1341.97,330.24,1358.47,303.07z"/>
					<path class="st1" d="M1355.02,300.89c14.6-24.02,10.87-52.73-4.35-81.8c-11-21.01-28.05-42.05-49.4-60.84
						c-19-16.63-41.28-30.28-63.61-42.47c-39.81-21.74-81.79-39.3-118.52-43.86c-36.27-4.5-66.7,2.52-82.02,27.74
						c-18.14,29.86-17.01,94.63-6.09,155.25s31.62,117.1,52.61,130.39c23.32,14.76,82.92,7.24,140.81-10.77
						C1282.34,356.51,1338.53,328.03,1355.02,300.89z"/>
					<path class="st1" d="M1351.57,298.7c14.67-24.14,11.29-52.88-3.37-81.88c-10.75-21.26-27.62-42.46-49.04-61.05
						c-19.18-16.54-41.8-29.39-64.17-40.95c-38.92-20.09-79.46-36.81-115.09-40.72c-35.02-3.85-64.4,3.18-79.33,27.74
						c-18.06,29.72-17.22,92.9-6.59,152s31.03,114.09,52.11,127.44c23.3,14.75,81.43,7.67,137.86-9.88
						C1280.38,353.85,1335.09,325.83,1351.57,298.7z"/>
					<path class="st1" d="M1348.11,296.52c14.74-24.26,11.72-53.04-2.4-81.97c-10.5-21.51-27.19-42.86-48.68-61.26
						c-19.36-16.44-42.3-28.51-64.73-39.42c-37.97-18.48-77.11-34.32-111.66-37.59c-33.76-3.19-62.11,3.85-76.63,27.74
						c-17.97,29.57-17.43,91.18-7.1,148.74s30.44,111.09,51.6,124.48c23.29,14.74,79.95,8.11,134.91-8.99
						C1278.39,351.17,1331.65,323.62,1348.11,296.52z"/>
					<path class="st1" d="M1344.66,294.33c14.82-24.38,12.16-53.2-1.42-82.06c-10.24-21.77-26.72-43.31-48.32-61.47
						c-19.5-16.39-42.78-27.62-65.28-37.89c-37.01-16.89-74.76-31.83-108.23-34.45c-32.5-2.54-59.82,4.51-73.93,27.74
						c-17.88,29.43-17.63,89.46-7.6,145.49s29.84,108.08,51.1,121.53c23.27,14.73,78.46,8.54,131.95-8.09
						S1328.21,321.41,1344.66,294.33z"/>
					<path class="st1" d="M1341.21,292.14c14.89-24.51,12.6-53.36-0.44-82.14c-9.98-22.03-26.28-43.72-47.96-61.68
						c-19.67-16.29-43.25-26.74-65.84-36.36c-36.01-15.34-72.42-29.35-104.8-31.31c-31.24-1.89-57.52,5.18-71.24,27.74
						c-17.79,29.28-17.84,87.73-8.11,142.24s29.25,105.07,50.59,118.58c23.25,14.72,76.98,8.98,129-7.2
						S1324.77,319.21,1341.21,292.14z"/>
					<path class="st1" d="M1337.76,289.96c14.96-24.63,13.05-53.53,0.54-82.23c-9.71-22.29-25.85-44.13-47.6-61.88
						c-19.85-16.2-43.69-25.86-66.4-34.83c-34.98-13.83-70.07-26.88-101.38-28.19c-29.98-1.25-55.23,5.84-68.54,27.75
						c-17.71,29.14-18.05,86.01-8.61,138.99c9.44,52.98,28.66,102.06,50.09,115.63c23.23,14.7,75.49,9.42,126.05-6.31
						C1272.47,343.16,1321.33,317,1337.76,289.96z"/>
					<path class="st1" d="M1334.31,287.77c15.04-24.75,13.5-53.71,1.52-82.31c-9.44-22.55-25.42-44.54-47.24-62.09
						c-20.02-16.11-44.12-24.99-66.96-33.31c-33.92-12.34-67.71-24.4-97.95-25.04c-28.71-0.62-52.93,6.51-65.84,27.75
						c-17.62,28.99-18.26,84.29-9.12,135.74s28.07,99.06,49.58,112.68c23.21,14.69,74.01,9.85,123.1-5.42
						S1317.89,314.79,1334.31,287.77z"/>
					<path class="st1" d="M1330.85,285.59c15.11-24.87,13.96-53.88,2.5-82.4c-9.17-22.82-24.98-44.94-46.88-62.3
						c-20.2-16.01-44.52-24.14-67.52-31.78c-32.82-10.91-65.34-21.93-94.52-21.91c-27.43,0.02-50.64,7.17-63.15,27.75
						c-17.53,28.85-18.47,82.56-9.62,132.48s27.47,96.05,49.08,109.72c23.19,14.68,72.52,10.29,120.15-4.53
						C1268.52,337.82,1314.45,312.58,1330.85,285.59z"/>
					<path class="st1" d="M1327.4,283.4c15.18-24.99,14.43-54.06,3.48-82.49c-8.88-23.08-24.55-45.34-46.52-62.51
						c-20.38-15.92-44.91-23.3-68.07-30.25c-31.7-9.51-62.99-19.45-91.1-18.77c-26.16,0.64-48.35,7.83-60.45,27.75
						c-17.44,28.7-18.68,80.84-10.13,129.23s26.88,93.04,48.57,106.77c23.17,14.67,71.03,10.72,117.2-3.63
						C1266.54,335.15,1311.01,310.38,1327.4,283.4z"/>
					<path class="st1" d="M1323.95,281.22c15.26-25.11,14.9-54.24,4.46-82.57c-8.61-23.36-24.12-45.75-46.16-62.72
						c-20.56-15.83-45.28-22.48-68.63-28.72c-30.55-8.18-60.62-17.01-87.67-15.64c-24.88,1.26-46.05,8.5-57.75,27.75
						c-17.35,28.56-18.88,79.12-10.63,125.98s26.29,90.03,48.06,103.82c23.16,14.66,69.55,11.16,114.25-2.74
						C1264.57,332.48,1307.57,308.17,1323.95,281.22z"/>
					<path class="st1" d="M1320.49,279.03c15.33-25.23,15.38-54.43,5.44-82.66c-8.32-23.63-23.69-46.16-45.8-62.93
						c-20.73-15.73-45.64-21.68-69.19-27.19c-29.38-6.88-58.24-14.55-84.25-12.5c-23.59,1.86-43.76,9.16-55.06,27.76
						c-17.27,28.41-19.09,77.39-11.14,122.73s25.69,87.03,47.56,100.87c23.14,14.65,68.06,11.6,111.29-1.85
						C1262.58,329.81,1304.12,305.96,1320.49,279.03z"/>
					<path class="st1" d="M1317.04,276.85c15.4-25.35,15.87-54.61,6.42-82.75c-8.02-23.91-23.26-46.56-45.44-63.14
						c-20.91-15.63-45.98-20.91-69.75-25.66c-28.18-5.63-55.86-12.11-80.82-9.36c-22.31,2.46-41.47,9.83-52.36,27.76
						c-17.18,28.27-19.3,75.67-11.64,119.47c7.66,43.81,25.1,84.02,47.05,97.92c23.12,14.64,66.58,12.03,108.34-0.96
						C1260.61,327.13,1300.69,303.76,1317.04,276.85z"/>
					<path class="st1" d="M1313.59,274.66c15.48-25.47,16.36-54.8,7.4-82.83c-7.73-24.18-22.83-46.96-45.09-63.35
						c-21.09-15.53-46.3-20.18-70.3-24.14c-26.97-4.44-53.48-9.68-77.39-6.22c-21.02,3.04-39.17,10.49-49.66,27.76
						c-17.09,28.12-19.51,73.94-12.15,116.22s24.51,81.01,46.55,94.96c23.1,14.62,65.09,12.47,105.39-0.07
						C1258.64,324.45,1297.24,301.55,1313.59,274.66z"/>
					<path class="st1" d="M1310.14,272.47c15.55-25.59,16.85-54.99,8.38-82.92c-7.42-24.46-22.4-47.36-44.72-63.55
						c-21.27-15.44-46.62-19.49-70.86-22.61c-25.74-3.31-51.09-7.26-73.96-3.09c-19.73,3.6-36.88,11.16-46.97,27.76
						c-17,27.98-19.72,72.22-12.65,112.97s23.91,78,46.04,92.01c23.08,14.61,63.61,12.9,102.44,0.83
						C1256.67,321.79,1293.81,299.34,1310.14,272.47z"/>
					<path class="st1" d="M1306.69,270.29c15.62-25.71,17.36-55.18,9.36-83.01c-7.11-24.74-21.98-47.76-44.37-63.77
						c-21.45-15.34-46.93-18.86-71.42-21.08c-24.51-2.22-48.71-4.87-70.54,0.05c-18.43,4.15-34.59,11.82-44.27,27.76
						c-16.91,27.83-19.93,70.5-13.16,109.72s23.32,75,45.54,89.06c23.06,14.6,62.12,13.34,99.49,1.72S1290.36,297.14,1306.69,270.29
						z"/>
					<path class="st1" d="M1303.23,268.1c15.7-25.83,17.87-55.37,10.34-83.09c-6.79-25.02-21.55-48.16-44.01-63.98
						c-21.63-15.24-47.23-18.28-71.98-19.55c-23.28-1.19-46.32-2.49-67.11,3.19c-17.14,4.68-32.29,12.49-41.58,27.77
						c-16.83,27.69-20.14,68.77-13.66,106.46s22.73,71.99,45.03,86.11c23.05,14.59,60.64,13.78,96.54,2.61
						C1252.72,316.45,1286.93,294.93,1303.23,268.1z"/>
					<path class="st1" d="M1299.78,265.92c15.77-25.95,18.38-55.56,11.32-83.18c-6.47-25.3-21.12-48.56-43.65-64.19
						c-21.82-15.13-47.55-17.78-72.53-18.02c-22.05-0.22-43.94-0.14-63.68,6.32c-15.86,5.19-30,13.15-38.88,27.77
						c-16.74,27.55-20.34,67.05-14.17,103.21c6.17,36.16,22.13,68.98,44.53,83.16c23.03,14.58,59.15,14.21,93.59,3.5
						C1250.73,313.78,1283.48,292.72,1299.78,265.92z"/>
					<path class="st1" d="M1296.33,263.73c15.84-26.07,18.91-55.76,12.3-83.27c-6.14-25.58-20.73-48.92-43.29-64.4
						c-22.03-14.98-47.88-17.35-73.09-16.49c-20.84,0.71-41.57,2.18-60.25,9.46c-14.58,5.68-27.71,13.82-36.18,27.77
						c-16.65,27.4-20.55,65.33-14.67,99.96s21.54,65.97,44.02,80.2c23.01,14.57,57.66,14.65,90.64,4.39
						C1248.77,311.11,1280.05,290.52,1296.33,263.73z"/>
					<path class="st1" d="M1292.88,261.55c15.92-26.19,19.43-55.95,13.28-83.35c-5.81-25.86-20.3-49.32-42.93-64.61
						c-22.21-14.9-48.24-17.03-73.65-14.97c-19.66,1.59-39.22,4.47-56.83,12.6c-13.32,6.15-25.41,14.48-33.49,27.77
						c-16.56,27.26-20.76,63.6-15.18,96.71c5.58,33.1,20.95,62.97,43.51,77.25c22.99,14.55,56.18,15.08,87.68,5.29
						S1276.6,288.31,1292.88,261.55z"/>
					<path class="st1" d="M1289.42,259.36c15.99-26.32,19.97-56.14,14.26-83.44c-5.46-26.15-19.87-49.72-42.57-64.82
						c-22.38-14.8-48.63-16.8-74.21-13.44c-18.52,2.44-36.9,6.73-53.4,15.73c-12.08,6.59-23.12,15.15-30.79,27.77
						c-16.47,27.11-20.97,61.88-15.68,93.46s20.35,59.96,43.01,74.3c22.97,14.54,54.69,15.52,84.73,6.18
						S1273.17,286.1,1289.42,259.36z"/>
					<path class="st1" d="M1285.97,257.18c16.06-26.44,20.5-56.33,15.24-83.53c-5.11-26.43-19.43-50.13-42.21-65.02
						c-22.56-14.7-49.08-16.69-74.76-11.91c-17.42,3.24-34.62,8.95-49.97,18.87c-10.86,7.02-20.82,15.81-28.09,27.77
						c-16.39,26.97-21.18,60.16-16.19,90.2c4.99,30.05,19.76,56.95,42.5,71.35c22.95,14.53,53.21,15.96,81.78,7.07
						C1242.84,303.09,1269.73,283.9,1285.97,257.18z"/>
					<path class="st1" d="M1282.52,254.99c16.14-26.56,21.05-56.52,16.22-83.61c-4.76-26.71-19.01-50.53-41.85-65.23
						c-22.74-14.6-49.61-16.7-75.32-10.38c-16.38,4.03-32.39,11.14-46.54,22.01c-9.68,7.43-18.53,16.48-25.4,27.78
						c-16.3,26.82-21.39,58.43-16.69,86.95c4.7,28.52,19.17,53.94,42,68.4c22.94,14.52,51.72,16.39,78.83,7.96
						C1240.86,300.42,1266.3,281.69,1282.52,254.99z"/>
					<path class="st1" d="M1113.08,147.73c-16.21,26.68-21.6,56.71-17.2,83.7s18.57,50.94,41.49,65.44s50.24,16.83,75.88,8.85
						c25.64-7.98,49.61-26.25,65.82-52.92s21.6-56.71,17.2-83.7s-18.57-50.94-41.49-65.44s-50.24-16.83-75.88-8.85
						S1129.29,121.06,1113.08,147.73z"/>
				</g>
				<g>
					<path class="st1" d="M1443.36,406.01c-29.98-18.98-98.36-17.54-162.43-6.12c-64.07,11.42-123.82,32.82-136.55,53.77
						c-14.35,23.62-5.06,88.74,14.56,152.21s49.56,125.29,76.49,142.34c53.85,34.09,132.76-34.42,184.74-119.96
						c25.99-42.77,45.25-89.81,51.28-130.41C1477.49,457.23,1470.3,423.06,1443.36,406.01z"/>
					<path class="st1" d="M1441.24,409.5c-29.84-18.89-96.67-17.73-159.23-6.6c-62.57,11.13-120.87,32.25-133.65,53.28
						c-14.34,23.61-5.5,87.22,13.66,149.2s48.63,122.31,75.53,139.34c23.49,14.87,51.6,10.68,80.13-5.6
						c19.96-11.4,40.08-28.73,58.66-49.91c16.58-18.93,31.54-40.89,44.75-63.67c24.32-41.94,42.83-87.45,48.24-126.94
						C1474.72,459.25,1467.53,426.13,1441.24,409.5z"/>
					<path class="st1" d="M1439.12,412.99c-29.69-18.8-94.97-17.93-156.04-7.09c-61.07,10.84-117.91,31.68-130.75,52.8
						c-14.33,23.59-5.94,85.71,12.76,146.19c18.7,60.48,47.7,119.32,74.58,136.34c23.61,14.95,51.75,11.1,80.23-4.61
						c20.21-11.15,40.49-28.3,58.88-49.56c16.47-19.1,30.65-41.43,43.22-64.22c22.67-41.09,40.4-85.09,45.19-123.48
						C1471.96,461.27,1464.76,429.21,1439.12,412.99z"/>
					<path class="st1" d="M1437.01,416.48c-29.55-18.7-93.28-18.13-152.84-7.57c-59.56,10.56-114.96,31.09-127.85,52.31
						c-14.32,23.57-6.38,84.2,11.85,143.19c18.24,58.98,46.77,116.33,73.63,133.33c23.74,15.02,51.9,11.52,80.33-3.62
						c20.46-10.9,40.9-27.87,59.11-49.22c16.37-19.28,29.75-41.96,41.69-64.78c21.03-40.2,37.98-82.73,42.15-120.01
						C1469.19,463.29,1461.97,432.29,1437.01,416.48z"/>
					<path class="st1" d="M1434.89,419.97c-29.41-18.61-91.58-18.32-149.64-8.05c-58.06,10.26-112.01,30.51-124.95,51.81
						c-14.31,23.55-6.82,82.68,10.95,140.18s45.83,113.35,72.67,130.34c23.86,15.1,52.06,11.96,80.43-2.62
						c20.71-10.64,41.31-27.44,59.33-48.87c16.27-19.46,28.85-42.47,40.16-65.34c19.43-39.28,35.56-80.37,39.1-116.54
						C1466.42,465.32,1459.21,435.37,1434.89,419.97z"/>
					<path class="st1" d="M1432.77,423.46c-29.26-18.52-89.89-18.52-146.45-8.54c-56.56,9.98-109.05,29.94-122.05,51.33
						c-14.3,23.53-7.27,81.17,10.04,137.17s44.9,110.36,71.72,127.34c23.98,15.18,52.22,12.39,80.53-1.63
						c20.97-10.39,41.72-27.01,59.56-48.52c16.16-19.63,27.96-42.97,38.63-65.89c17.85-38.32,33.14-78,36.06-113.07
						C1463.66,467.35,1456.44,438.44,1432.77,423.46z"/>
					<path class="st1" d="M1430.65,426.95c-29.12-18.43-88.19-18.72-143.25-9.02c-55.06,9.7-106.1,29.37-119.15,50.84
						c-14.29,23.51-7.71,79.66,9.14,134.16s43.97,107.38,70.77,124.34c24.1,15.25,52.38,12.84,80.63-0.64
						c21.23-10.13,42.14-26.58,59.78-48.18c16.06-19.81,27.06-43.45,37.1-66.45c16.3-37.34,30.73-75.63,33.01-109.61
						C1460.9,469.38,1453.67,441.52,1430.65,426.95z"/>
					<path class="st1" d="M1428.53,430.44c-28.98-18.34-86.5-18.91-140.06-9.51c-53.56,9.41-103.14,28.79-116.25,50.35
						c-14.28,23.49-8.15,78.14,8.24,131.16s43.04,104.39,69.82,121.34c24.22,15.33,52.55,13.29,80.73,0.35
						c21.49-9.86,42.6-26.12,60-47.83c16-19.95,26.17-43.91,35.57-67.01c14.78-36.32,28.31-73.25,29.97-106.14
						C1458.15,471.41,1450.9,444.6,1428.53,430.44z"/>
					<path class="st1" d="M1426.41,433.93c-28.83-18.25-84.81-19.11-136.86-9.99c-52.05,9.11-100.19,28.21-113.35,49.86
						c-14.26,23.48-8.59,76.63,7.33,128.15s42.11,101.41,68.87,118.34c24.34,15.41,52.73,13.74,80.83,1.35
						c21.75-9.6,43.01-25.68,60.23-47.48c15.89-20.12,25.29-44.35,34.04-67.56c13.3-35.28,25.9-70.87,26.92-102.67
						C1455.4,473.45,1448.12,447.67,1426.41,433.93z"/>
					<path class="st1" d="M1424.29,437.41c-28.69-18.16-83.11-19.31-133.66-10.48s-97.23,27.64-110.45,49.38
						c-14.25,23.46-9.04,75.12,6.43,125.14c15.46,50.03,41.18,98.42,67.91,115.34c24.46,15.48,52.9,14.21,80.93,2.34
						c22.02-9.33,43.43-25.25,60.45-47.13c15.79-20.3,24.42-44.77,32.51-68.12c11.86-34.2,23.49-68.49,23.88-99.2
						C1452.65,475.49,1445.35,450.75,1424.29,437.41z"/>
					<path class="st1" d="M1422.17,440.9c-28.55-18.07-81.42-19.5-130.47-10.96c-49.05,8.54-94.28,27.06-107.55,48.89
						c-14.24,23.44-9.48,73.6,5.52,122.14s40.24,95.43,66.96,112.34c24.58,15.56,53.09,14.67,81.03,3.33
						c22.29-9.05,43.84-24.82,60.68-46.79c15.69-20.47,23.56-45.17,30.98-68.68c10.46-33.09,21.09-66.11,20.83-95.73
						C1449.91,477.53,1442.59,453.83,1422.17,440.9z"/>
					<path class="st1" d="M1420.05,444.39c-28.4-17.98-79.72-19.7-127.27-11.44s-91.33,26.49-104.64,48.41
						c-14.23,23.42-9.92,72.09,4.62,119.13s39.31,92.45,66.01,109.35c24.7,15.64,53.27,15.15,81.12,4.32
						c22.57-8.77,44.25-24.39,60.9-46.44c15.59-20.65,22.71-45.56,29.45-69.24c9.1-31.95,18.7-63.72,17.79-92.27
						C1447.18,479.58,1439.82,456.9,1420.05,444.39z"/>
					<path class="st1" d="M1417.93,447.88c-28.26-17.89-78.03-19.9-124.07-11.93c-46.05,7.97-88.37,25.91-101.74,47.92
						c-14.22,23.4-10.36,70.58,3.72,116.12c14.08,45.55,38.38,89.46,65.05,106.35c24.82,15.71,53.46,15.63,81.22,5.32
						c22.84-8.48,44.67-23.96,61.12-46.09c15.49-20.83,21.88-45.93,27.92-69.79c7.79-30.79,16.31-61.32,14.74-88.8
						C1444.45,481.63,1437.05,459.98,1417.93,447.88z"/>
					<path class="st1" d="M1415.81,451.37c-28.12-17.8-76.33-20.09-120.88-12.41s-85.42,25.33-98.84,47.43
						c-14.21,23.38-10.81,69.06,2.81,113.11s37.45,86.48,64.1,103.35c24.95,15.79,53.65,16.12,81.32,6.31
						c23.12-8.19,45.08-23.53,61.35-45.75c15.38-21,21.08-46.28,26.4-70.35c6.54-29.61,13.92-58.92,11.7-85.33
						C1441.73,483.68,1434.28,463.06,1415.81,451.37z"/>
					<path class="st1" d="M1413.69,454.86c-27.97-17.71-74.64-20.29-117.68-12.9s-82.46,24.76-95.94,46.94
						c-14.2,23.36-11.25,67.55,1.91,110.11s36.52,83.49,63.15,100.35c25.07,15.87,53.84,16.61,81.42,7.3
						c23.4-7.9,45.49-23.1,61.57-45.4c15.28-21.18,20.31-46.62,24.87-70.91c5.33-28.41,11.55-56.52,8.65-81.86
						C1439.03,485.74,1431.49,466.14,1413.69,454.86z"/>
					<path class="st1" d="M1411.57,458.35c-27.83-17.62-72.95-20.49-114.49-13.38c-41.54,7.1-79.51,24.18-93.04,46.46
						c-14.19,23.35-11.69,66.04,1,107.1s35.59,80.5,62.2,97.35c25.19,15.94,54.03,17.11,81.52,8.3c23.68-7.59,45.9-22.68,61.8-45.05
						c15.17-21.36,19.58-46.95,23.34-71.46c4.17-27.19,9.19-54.12,5.61-78.39C1436.34,487.8,1428.72,469.21,1411.57,458.35z"/>
					<path class="st1" d="M1409.45,461.84c-27.69-17.53-71.25-20.68-111.29-13.87s-76.55,23.61-90.14,45.97
						c-14.17,23.33-12.13,64.52,0.1,104.09s34.66,77.52,61.24,94.35c25.31,16.02,54.23,17.62,81.62,9.29
						c23.96-7.29,46.31-22.25,62.02-44.71c15.07-21.54,18.88-47.27,21.81-72.02c3.06-25.96,6.84-51.71,2.56-74.93
						C1433.66,489.86,1425.96,472.29,1409.45,461.84z"/>
					<path class="st1" d="M1407.33,465.33c-27.54-17.44-69.56-20.88-108.09-14.35s-73.6,23.03-87.24,45.48
						c-14.16,23.31-12.58,63.01-0.8,101.09c11.78,38.08,33.72,74.53,60.29,91.35c25.43,16.1,54.43,18.13,81.72,10.28
						c24.24-6.97,46.72-21.82,62.24-44.36c14.96-21.71,18.24-47.58,20.28-72.58c2.01-24.72,4.51-49.3-0.48-71.46
						C1430.98,491.92,1423.19,475.37,1407.33,465.33z"/>
					<path class="st1" d="M1405.21,468.82c-27.4-17.34-67.86-21.08-104.9-14.83c-37.04,6.24-70.64,22.45-84.34,44.99
						c-14.15,23.29-13.02,61.5-1.71,98.08s32.8,71.54,59.34,88.34c25.55,16.17,54.62,18.65,81.82,11.27
						c24.53-6.65,47.13-21.4,62.47-44.01c14.85-21.89,17.66-47.89,18.75-73.13c1.01-23.49,2.2-46.89-3.53-67.99
						C1428.35,493.98,1420.42,478.44,1405.21,468.82z"/>
					<path class="st1" d="M1403.09,472.3c-27.26-17.25-66.17-21.27-101.7-15.32c-35.53,5.95-67.69,21.88-81.44,44.51
						c-14.14,23.27-13.46,59.98-2.61,95.07s31.86,68.56,58.39,85.35c25.67,16.25,54.82,19.18,81.92,12.27
						c24.81-6.33,47.49-21,62.69-43.66c14.7-22.1,17.15-48.21,17.22-73.69c0.06-22.26-0.09-44.49-6.57-64.52
						C1425.72,496.03,1417.65,481.52,1403.09,472.3z"/>
					<path class="st1" d="M1400.97,475.79c-27.11-17.16-64.47-21.47-98.5-15.8s-64.74,21.3-78.54,44.02
						c-14.13,23.25-13.9,58.47-3.52,92.07c10.39,33.6,30.93,65.57,57.43,82.35c25.79,16.33,55.02,19.71,82.02,13.26
						c25.1-5.99,47.9-20.57,62.92-43.32c14.6-22.28,16.72-48.54,15.69-74.25c-0.84-21.05-2.36-42.1-9.62-61.05
						C1423.1,498.08,1414.88,484.6,1400.97,475.79z"/>
					<path class="st1" d="M1398.85,479.28c-26.97-17.07-62.78-21.66-95.31-16.29s-61.78,20.73-75.64,43.53
						c-14.12,23.23-14.34,56.96-4.42,89.06c9.92,32.1,30,62.59,56.48,79.35c25.91,16.4,55.22,20.25,82.12,14.25
						c25.38-5.65,48.32-20.14,63.14-42.97c14.49-22.45,16.38-48.9,14.16-74.8c-1.7-19.86-4.59-39.73-12.66-57.59
						C1420.52,500.12,1412.1,487.67,1398.85,479.28z"/>
					<path class="st1" d="M1396.72,482.77c-26.83-16.98-61.08-21.86-92.11-16.77c-31.03,5.09-58.83,20.15-72.74,43.04
						c-14.11,23.22-14.79,55.44-5.32,86.05c9.46,30.61,29.07,59.6,55.53,76.35c26.04,16.48,55.41,20.79,82.22,15.25
						c25.67-5.31,48.73-19.71,63.36-42.62c14.39-22.63,16.14-49.3,12.63-75.36c-2.52-18.71-6.8-37.38-15.71-54.12
						C1417.96,502.13,1409.34,490.75,1396.72,482.77z"/>
					<path class="st1" d="M1394.6,486.26c-26.68-16.89-59.39-22.06-88.92-17.26s-55.87,19.57-69.84,42.56
						c-14.1,23.2-15.23,53.93-6.23,83.04s28.13,56.62,54.58,73.35c26.16,16.56,55.61,21.34,82.32,16.24
						c25.95-4.95,49.14-19.28,63.59-42.28c14.28-22.81,16.01-49.75,11.1-75.92c-3.31-17.61-8.97-35.06-18.75-50.65
						C1415.41,504.12,1406.57,493.83,1394.6,486.26z"/>
					<path class="st1" d="M1392.48,489.75c-26.54-16.8-57.7-22.25-85.72-17.74s-52.92,19-66.94,42.07
						c-14.08,23.18-15.67,52.41-7.13,80.04c8.54,27.62,27.2,53.63,53.62,70.35c26.28,16.63,55.81,21.89,82.42,17.23
						c26.24-4.59,49.55-18.85,63.81-41.93c14.18-22.98,16.01-50.28,9.57-76.47c-4.07-16.56-11.11-32.8-21.8-47.18
						C1412.86,506.08,1403.79,496.91,1392.48,489.75z"/>
					<path class="st1" d="M1390.36,493.24c-26.4-16.71-56-22.45-82.52-18.22s-49.96,18.42-64.04,41.58
						c-14.07,23.16-16.11,50.9-8.04,77.03s26.27,50.64,52.67,67.35s56,22.45,82.52,18.22c26.52-4.23,49.96-18.42,64.04-41.58
						c14.07-23.16,16.11-50.9,8.04-77.03C1434.96,534.47,1416.77,509.95,1390.36,493.24z"/>
				</g>
				<g>
					<path class="st1" d="M693.97,405.45c29.98,18.98,98.36,17.54,162.43,6.12s123.82-32.82,136.55-53.77
						c14.35-23.62,5.06-88.74-14.56-152.21S928.82,80.3,901.9,63.25c-53.85-34.09-132.76,34.42-184.74,119.96
						c-25.99,42.77-45.25,89.81-51.28,130.41S667.04,388.4,693.97,405.45z"/>
					<path class="st1" d="M899.78,66.74c-23.49-14.87-51.6-10.68-80.13,5.6c-19.96,11.4-40.08,28.73-58.66,49.91
						c-16.58,18.93-31.54,40.89-44.75,63.67c-24.32,41.94-42.83,87.45-48.24,126.94c-5.39,39.35,1.81,72.46,28.08,89.09
						c29.84,18.89,96.67,17.73,159.23,6.6c62.57-11.13,120.87-32.25,133.65-53.28c14.34-23.61,5.5-87.22-13.66-149.2
						C956.14,144.09,926.68,83.77,899.78,66.74z"/>
					<path class="st1" d="M897.66,70.23c-23.61-14.95-51.75-11.1-80.23,4.61c-20.21,11.15-40.49,28.3-58.88,49.56
						c-16.47,19.1-30.65,41.43-43.22,64.22c-22.67,41.09-40.4,85.09-45.19,123.48c-4.75,38.09,2.45,70.14,28.07,86.36
						c29.69,18.8,94.97,17.93,156.04,7.09S972.17,373.88,985,352.76c14.33-23.59,5.94-85.71-12.76-146.19S924.54,87.25,897.66,70.23
						z"/>
					<path class="st1" d="M895.54,73.72c-23.74-15.02-51.9-11.52-80.33,3.62c-20.46,10.9-40.9,27.87-59.11,49.22
						c-16.37,19.28-29.75,41.96-41.69,64.78c-21.03,40.2-37.98,82.73-42.15,120.01c-4.12,36.82,3.09,67.83,28.06,83.64
						c29.55,18.7,93.28,18.13,152.84,7.57s114.96-31.09,127.85-52.3c14.32-23.57,6.38-84.2-11.85-143.19
						C950.93,148.08,922.4,90.73,895.54,73.72z"/>
					<path class="st1" d="M893.42,77.21c-23.86-15.1-52.06-11.96-80.43,2.62c-20.71,10.64-41.31,27.44-59.33,48.87
						c-16.27,19.46-28.85,42.47-40.16,65.34c-19.43,39.28-35.56,80.37-39.1,116.54c-3.48,35.56,3.73,65.51,28.05,80.91
						c29.41,18.61,91.58,18.32,149.64,8.05c58.06-10.27,112.01-30.52,124.95-51.82c14.31-23.55,6.82-82.68-10.95-140.18
						S920.26,94.2,893.42,77.21z"/>
					<path class="st1" d="M891.3,80.7c-23.98-15.18-52.22-12.39-80.53,1.63c-20.97,10.39-41.72,27.01-59.56,48.52
						c-16.16,19.63-27.96,42.97-38.63,65.89c-17.85,38.32-33.14,78-36.06,113.07c-2.85,34.29,4.37,63.2,28.04,78.18
						c29.26,18.52,89.89,18.52,146.45,8.54c56.56-9.98,109.05-29.94,122.05-51.33c14.3-23.53,7.27-81.17-10.04-137.17
						C945.71,152.04,918.12,97.68,891.3,80.7z"/>
					<path class="st1" d="M889.18,84.19c-24.1-15.25-52.38-12.84-80.63,0.64c-21.23,10.13-42.14,26.58-59.78,48.18
						c-16.06,19.81-27.06,43.45-37.1,66.45c-16.3,37.34-30.73,75.63-33.01,109.61c-2.22,33.02,5.01,60.88,28.03,75.45
						c29.12,18.43,88.19,18.72,143.25,9.02s106.1-29.37,119.15-50.84c14.29-23.51,7.71-79.66-9.14-134.16
						C943.1,154.02,915.98,101.15,889.18,84.19z"/>
					<path class="st1" d="M887.06,87.68c-24.22-15.33-52.55-13.29-80.73-0.35c-21.49,9.86-42.6,26.12-60,47.83
						c-16,19.95-26.17,43.91-35.57,67.01c-14.78,36.32-28.31,73.25-29.97,106.14c-1.6,31.75,5.65,58.57,28.02,72.73
						c28.98,18.34,86.5,18.91,140.06,9.51s103.14-28.79,116.25-50.35c14.28-23.49,8.15-78.14-8.24-131.16
						C940.49,156.02,913.83,104.63,887.06,87.68z"/>
					<path class="st1" d="M884.94,91.17c-24.34-15.41-52.73-13.74-80.83-1.35c-21.75,9.6-43.01,25.68-60.23,47.48
						c-15.89,20.12-25.29,44.35-34.04,67.56c-13.3,35.28-25.9,70.87-26.92,102.67c-0.98,30.48,6.29,56.25,28.01,70
						c28.83,18.25,84.81,19.11,136.86,9.99c52.05-9.12,100.19-28.21,113.35-49.87c14.26-23.48,8.59-76.63-7.33-128.15
						C937.87,157.99,911.69,108.1,884.94,91.17z"/>
					<path class="st1" d="M882.82,94.66c-24.46-15.48-52.9-14.21-80.93-2.34c-22.02,9.33-43.43,25.25-60.45,47.13
						c-15.79,20.3-24.42,44.77-32.51,68.12c-11.86,34.2-22.09,68.54-23.88,99.2c-1.7,29.15,6.93,53.94,28,67.27
						c28.69,18.16,83.11,19.31,133.66,10.48s97.23-27.64,110.45-49.38c14.25-23.46,9.04-75.12-6.43-125.14
						C935.26,159.97,909.55,111.58,882.82,94.66z"/>
					<path class="st1" d="M880.7,98.14c-24.58-15.56-53.09-14.67-81.03-3.33c-22.29,9.05-43.84,24.82-60.68,46.79
						c-15.69,20.47-23.56,45.17-30.98,68.68c-10.46,33.09-19.56,66.13-20.83,95.73c-1.2,27.89,7.57,51.62,27.99,64.55
						c28.55,18.07,81.42,19.5,130.47,10.96s94.28-27.06,107.55-48.89c14.24-23.44,9.48-73.6-5.52-122.14S907.41,115.06,880.7,98.14z
						"/>
					<path class="st1" d="M878.58,101.63c-24.7-15.64-53.27-15.15-81.12-4.32c-22.57,8.77-44.25,24.39-60.9,46.44
						c-15.59,20.65-22.71,45.56-29.45,69.24c-9.1,31.95-18.7,63.72-17.79,92.27c0.85,26.63,8.21,49.31,27.98,61.82
						c28.4,17.98,79.72,19.7,127.27,11.44s91.33-26.49,104.64-48.41c14.23-23.42,9.92-72.09-4.62-119.13
						C930.05,163.94,905.27,118.53,878.58,101.63z"/>
					<path class="st1" d="M876.46,105.12C851.63,89.41,823,89.49,795.23,99.8c-22.84,8.48-44.67,23.96-61.12,46.09
						c-15.49,20.83-21.88,45.93-27.92,69.79c-7.79,30.79-16.31,61.32-14.74,88.8c1.44,25.34,8.85,46.99,27.97,59.09
						c28.26,17.89,78.03,19.9,124.07,11.93c46.05-7.97,88.37-25.91,101.74-47.92c14.22-23.4,10.36-70.58-3.72-116.12
						C927.43,165.92,903.13,122.01,876.46,105.12z"/>
					<path class="st1" d="M874.34,108.61c-24.95-15.79-53.65-16.12-81.32-6.31c-23.12,8.19-45.08,23.53-61.35,45.75
						c-15.38,21-21.08,46.28-26.4,70.35c-6.54,29.61-13.92,58.92-11.7,85.33c2.03,24.05,9.49,44.68,27.96,56.36
						c28.12,17.8,76.33,20.09,120.88,12.41s85.42-25.33,98.84-47.43c14.21-23.38,10.81-69.06-2.81-113.11
						S900.99,125.48,874.34,108.61z"/>
					<path class="st1" d="M872.22,112.1c-25.07-15.87-53.84-16.61-81.42-7.3c-23.4,7.9-45.49,23.1-61.57,45.4
						c-15.28,21.18-20.31,46.62-24.87,70.91c-5.33,28.41-11.55,56.52-8.65,81.86c2.6,22.76,10.13,42.36,27.94,53.64
						c27.97,17.71,74.64,20.29,117.68,12.9s82.46-24.76,95.94-46.94c14.2-23.36,11.25-67.55-1.91-110.11S898.85,128.96,872.22,112.1
						z"/>
					<path class="st1" d="M870.1,115.59c-25.19-15.94-54.03-17.11-81.52-8.3c-23.68,7.59-45.9,22.68-61.8,45.05
						c-15.17,21.36-19.58,46.95-23.34,71.46c-4.17,27.19-9.19,54.12-5.61,78.39c3.17,21.46,10.77,40.05,27.93,50.91
						c27.83,17.62,72.95,20.49,114.49,13.38c41.54-7.1,79.51-24.18,93.04-46.46c14.19-23.35,11.69-66.04-1-107.1
						S896.7,132.43,870.1,115.59z"/>
					<path class="st1" d="M867.98,119.08c-25.31-16.02-54.23-17.62-81.62-9.29c-23.96,7.29-46.31,22.25-62.02,44.71
						c-15.07,21.54-12.85,48.76-21.81,72.02c-9.39,24.39-6.84,51.71-2.56,74.93c3.71,20.16,11.41,37.73,27.92,48.18
						c27.69,17.53,71.25,20.68,111.29,13.87c40.04-6.82,76.55-23.61,90.14-45.97c14.17-23.33,12.13-64.52-0.1-104.09
						C916.99,173.86,894.56,135.91,867.98,119.08z"/>
					<path class="st1" d="M865.85,122.57c-25.43-16.1-54.43-18.13-81.72-10.28c-24.24,6.97-46.72,21.82-62.24,44.36
						c-14.96,21.71-12.19,48.83-20.28,72.58c-8,23.48-4.51,49.3,0.48,71.46c4.25,18.86,12.05,35.42,27.91,45.46
						c27.54,17.44,69.56,20.88,108.09,14.35c38.54-6.53,73.6-23.03,87.24-45.48c14.16-23.31,12.58-63.01,0.8-101.09
						C914.34,175.85,892.42,139.38,865.85,122.57z"/>
					<path class="st1" d="M863.73,126.06c-25.55-16.17-54.62-18.65-81.82-11.27c-24.53,6.65-47.13,21.4-62.47,44.01
						c-14.85,21.89-11.7,48.87-18.75,73.13c-6.55,22.58-2.2,46.89,3.53,67.99c4.77,17.56,12.69,33.1,27.9,42.73
						c27.4,17.34,67.86,21.08,104.9,14.83c37.04-6.24,70.64-22.45,84.34-44.99c14.15-23.29,13.02-61.5,1.71-98.08
						C911.76,177.82,890.28,142.86,863.73,126.06z"/>
					<path class="st1" d="M861.61,129.55c-25.67-16.25-54.82-19.18-81.92-12.27c-24.81,6.33-47.49,21-62.69,43.66
						c-14.7,22.1-11.42,48.87-17.22,73.69c-5.06,21.68,0.09,44.49,6.57,64.52c5.26,16.27,13.33,30.79,27.89,40
						c27.26,17.25,66.17,21.27,101.7,15.32s67.69-21.88,81.44-44.51c14.14-23.27,13.46-59.98,2.61-95.07
						S888.14,146.34,861.61,129.55z"/>
					<path class="st1" d="M859.49,133.03c-25.79-16.33-55.02-19.71-82.02-13.26c-25.1,5.99-47.9,20.57-62.92,43.32
						c-14.6,22.28-11.39,48.88-15.69,74.25c-3.52,20.77,2.36,42.1,9.62,61.05c5.74,14.99,13.97,28.47,27.88,37.27
						c27.11,17.16,64.47,21.47,98.5,15.8s64.74-21.3,78.54-44.02c14.13-23.25,13.9-58.47,3.52-92.07
						C906.54,181.79,886,149.81,859.49,133.03z"/>
					<path class="st1" d="M857.37,136.52c-25.91-16.4-55.22-20.25-82.12-14.25c-25.38,5.65-48.32,20.14-63.14,42.97
						c-14.49,22.45-11.64,48.93-14.16,74.8c-1.93,19.84,4.59,39.73,12.66,57.59c6.2,13.72,14.61,26.16,27.87,34.55
						c26.97,17.07,62.78,21.66,95.31,16.29c32.53-5.38,61.78-20.73,75.64-43.53c14.12-23.23,14.34-56.96,4.42-89.06
						C903.93,183.77,883.86,153.29,857.37,136.52z"/>
					<path class="st1" d="M855.25,140.01c-26.04-16.48-55.41-20.79-82.22-15.25c-25.67,5.31-48.73,19.71-63.36,42.62
						c-14.39,22.63-16.14,49.3-12.63,75.36c2.52,18.71,6.8,37.38,15.71,54.12c6.63,12.46,15.25,23.84,27.86,31.82
						c26.83,16.98,61.08,21.86,92.11,16.77s58.83-20.15,72.74-43.04c14.11-23.22,14.79-55.44,5.32-86.05
						C901.32,185.76,881.72,156.76,855.25,140.01z"/>
					<path class="st1" d="M853.13,143.5c-26.16-16.56-55.61-21.34-82.32-16.24c-25.95,4.95-49.14,19.28-63.59,42.28
						c-14.28,22.81-16.01,49.75-11.1,75.92c3.31,17.61,8.97,35.06,18.75,50.65c7.05,11.23,15.89,21.53,27.85,29.09
						c26.68,16.89,59.39,22.06,88.92,17.26s55.87-19.57,69.84-42.56c14.1-23.2,15.23-53.93,6.23-83.04
						C898.71,187.74,879.57,160.24,853.13,143.5z"/>
					<path class="st1" d="M851.01,146.99c-26.28-16.63-55.81-21.89-82.42-17.23c-26.24,4.59-49.55,18.85-63.81,41.93
						c-14.18,22.98-16.01,50.28-9.57,76.47c4.07,16.56,11.11,32.8,21.8,47.18c7.45,10.04,16.53,19.21,27.84,26.37
						c26.54,16.8,57.7,22.25,85.72,17.74s52.92-19,66.94-42.07c14.08-23.18,15.67-52.41,7.13-80.04
						C896.1,189.71,877.43,163.71,851.01,146.99z"/>
					<path class="st1" d="M746.97,318.22c26.4,16.71,56,22.45,82.52,18.22s49.96-18.42,64.04-41.58s16.11-50.9,8.04-77.03
						c-8.08-26.13-26.27-50.64-52.67-67.35c-26.4-16.71-56-22.45-82.52-18.22s-49.96,18.42-64.04,41.58s-16.11,50.9-8.04,77.03
						S720.57,301.51,746.97,318.22z"/>
				</g>
			</g>
		</g>
	</g>
	<g>
		<g>
			<defs>
				<rect id="SVGID_00000078004965903819794530000001748155918089586828_" x="0.54" width="1222.91" height="792"/>
			</defs>
			<clipPath id="SVGID_00000133511111243500312170000008095920135773663367_">
				<use xlink:href="#SVGID_00000078004965903819794530000001748155918089586828_"  style="overflow:visible;"/>
			</clipPath>
			<g style="clip-path:url(#SVGID_00000133511111243500312170000008095920135773663367_);">
				<g>
					<path class="st1" d="M173.93-17.86c-15.71,30.66-9.36,98.33,6.09,161.22s40,120.99,60.69,132.53
						c23.33,13.02,84.08,0.49,142.51-22.18c58.44-22.67,114.57-55.47,128.68-83.01c28.24-55.08-42.14-129.76-126.64-176.9
						c-42.25-23.57-88.02-40.25-126.76-44.16C219.75-54.27,188.05-45.4,173.93-17.86z"/>
					<path class="st1" d="M508.46,168.78c12.35-24.1,6.27-51.82-11.29-79.32c-12.37-19.37-30.43-38.57-52.04-56.02
						c-18.86-15.2-40.38-28.67-62.5-40.41C341.26-28.93,297-44.93,259.35-48.27c-37.51-3.33-68.21,5.47-81.97,32.34
						c-15.64,30.52-9.67,96.66,5.4,158.07s39.25,118.09,60.02,129.68c23.31,13.01,82.68,1.01,139.74-21.13
						S494.37,196.3,508.46,168.78z"/>
					<path class="st1" d="M505.02,166.86c12.41-24.22,6.66-51.98-10.35-79.46c-12.14-19.62-30.04-38.98-51.7-56.24
						c-19.03-15.1-40.87-27.79-62.94-38.89c-40.48-20.36-83.25-35.66-119.81-38.45c-36.27-2.76-65.97,5.98-79.39,32.17
						c-15.56,30.37-9.98,94.99,4.71,154.93s38.49,115.2,59.35,126.84c23.3,13,81.29,1.52,136.97-20.08
						C437.55,226.08,490.93,194.35,505.02,166.86z"/>
					<path class="st1" d="M501.58,164.93c12.47-24.34,7.05-52.15-9.42-79.6c-11.92-19.87-29.65-39.4-51.36-56.46
						c-19.2-15-41.33-26.9-63.39-37.38C337.86-27.3,296.55-41.88,261.08-44.1c-35.03-2.19-63.72,6.49-76.8,32.01
						c-15.49,30.22-10.29,93.33,4.02,151.79c14.31,58.47,37.73,112.3,58.68,123.99c23.28,12.99,79.89,2.04,134.2-19.03
						S487.5,192.41,501.58,164.93z"/>
					<path class="st1" d="M498.13,163.01c12.53-24.46,7.44-52.32-8.48-79.74c-11.69-20.13-29.26-39.82-51.03-56.68
						c-19.36-14.9-41.78-26.01-63.84-35.86c-38.59-17.24-78.46-31.08-112.85-32.74c-33.79-1.63-61.48,6.99-74.21,31.84
						c-15.41,30.08-10.6,91.66,3.33,148.65s36.97,109.4,58.01,121.14c23.26,12.98,78.49,2.55,131.43-17.98
						S484.06,190.47,498.13,163.01z"/>
					<path class="st1" d="M494.69,161.09c12.6-24.58,7.85-52.5-7.55-79.88c-11.46-20.39-28.83-40.28-50.69-56.9
						c-19.5-14.83-42.21-25.12-64.29-34.35c-37.6-15.72-76.07-28.79-109.37-29.88c-32.54-1.07-59.24,7.5-71.63,31.68
						c-15.34,29.93-10.9,89.99,2.64,145.51c13.55,55.52,36.21,106.5,57.33,118.29c23.24,12.97,77.1,3.07,128.66-16.93
						S480.63,188.52,494.69,161.09z"/>
					<path class="st1" d="M491.24,159.17c12.66-24.7,8.25-52.68-6.61-80.02c-11.23-20.65-28.43-40.7-50.35-57.12
						C414.62,7.29,391.65-2.2,369.54-10.8c-36.58-14.23-73.67-26.5-105.89-27.03c-31.29-0.51-57,8.01-69.04,31.51
						C179.35,23.46,183.4,82,196.55,136.05c13.17,54.05,35.45,103.61,56.66,115.44c23.22,12.96,75.7,3.58,125.89-15.89
						S477.19,186.58,491.24,159.17z"/>
					<path class="st1" d="M487.79,157.24c12.72-24.82,8.67-52.86-5.68-80.16c-10.99-20.92-28.04-41.12-50.01-57.34
						C412.28,5.1,389.08-3.61,366.93-11.58C331.4-24.36,295.67-35.8,264.52-35.75c-30.04,0.05-54.75,8.52-66.45,31.35
						c-15.19,29.64-11.52,86.65,1.26,139.23c12.78,52.57,34.69,100.71,55.99,112.59c23.2,12.95,74.31,4.1,123.12-14.84
						C427.24,213.65,473.76,184.63,487.79,157.24z"/>
					<path class="st1" d="M484.35,155.32c12.78-24.94,9.09-53.05-4.74-80.3c-10.75-21.19-27.64-41.54-49.67-57.56
						c-19.99-14.54-43.4-22.48-65.63-29.8c-34.45-11.36-68.85-21.94-98.94-21.31c-28.79,0.6-52.51,9.02-63.87,31.18
						c-15.11,29.49-11.83,84.98,0.57,136.08c12.4,51.1,33.93,97.81,55.32,109.74c23.19,12.94,72.91,4.61,120.35-13.79
						S470.32,182.69,484.35,155.32z"/>
					<path class="st1" d="M480.9,153.4c12.84-25.07,9.51-53.25-3.81-80.44C466.59,51.5,449.85,31,427.77,15.17
						C407.61,0.73,384-6.44,361.69-13.11c-33.34-9.98-66.44-19.66-95.46-18.46c-27.53,1.14-50.27,9.53-61.28,31.02
						c-15.04,29.35-12.14,83.31-0.12,132.94s33.17,94.91,54.65,106.9c23.17,12.93,71.52,5.13,117.58-12.74
						S466.89,180.74,480.9,153.4z"/>
					<path class="st1" d="M477.46,151.48c12.91-25.19,9.94-53.44-2.87-80.58c-10.26-21.74-26.86-42.38-48.99-58
						c-20.32-14.35-44.11-20.76-66.53-26.77c-32.2-8.64-64.03-17.39-91.98-15.6c-26.27,1.68-48.03,10.04-58.69,30.85
						c-14.96,29.2-12.45,81.65-0.81,129.8S240,223.2,261.57,235.23c23.15,12.92,70.12,5.64,114.81-11.69S463.45,178.8,477.46,151.48
						z"/>
					<path class="st1" d="M474.01,149.55c12.97-25.31,10.38-53.64-1.93-80.72c-10.01-22.01-26.47-42.8-48.65-58.23
						C402.94-3.65,379-9.32,356.45-14.66c-31.04-7.35-61.6-15.13-88.5-12.75c-25,2.21-45.79,10.55-56.11,30.69
						c-14.89,29.05-12.76,79.98-1.5,126.66s31.65,89.12,53.3,101.2c23.13,12.9,68.73,6.16,112.04-10.64
						C418.99,203.71,460.02,176.86,474.01,149.55z"/>
					<path class="st1" d="M470.56,147.63c13.03-25.43,10.82-53.85-1-80.86c-9.75-22.29-26.07-43.22-48.31-58.45
						c-20.66-14.15-44.74-19.1-67.42-23.74c-29.85-6.1-59.18-12.87-85.02-9.89c-23.73,2.73-43.54,11.05-53.52,30.52
						c-14.81,28.91-13.07,78.31-2.19,123.52s30.89,86.22,52.63,98.35c23.11,12.89,67.33,6.67,109.27-9.59
						C416.93,201.22,456.58,174.91,470.56,147.63z"/>
					<path class="st1" d="M467.12,145.71c13.09-25.55,11.27-54.05-0.06-81c-9.49-22.57-25.68-43.63-47.97-58.67
						c-20.82-14.05-45.03-18.31-67.87-22.22c-28.64-4.91-56.75-10.62-81.54-7.04c-22.46,3.25-41.3,11.56-50.93,30.35
						c-14.74,28.76-13.38,76.64-2.88,120.38s30.14,83.33,51.96,95.5c23.09,12.88,65.94,7.19,106.5-8.54S453.15,172.97,467.12,145.71
						z"/>
					<path class="st1" d="M463.67,143.79c13.15-25.67,11.72-54.26,0.87-81.14c-9.23-22.86-25.29-44.05-47.63-58.89
						c-20.99-13.95-45.31-17.55-68.32-20.71c-27.41-3.77-54.32-8.38-78.06-4.18c-21.19,3.75-39.06,12.07-48.35,30.19
						c-14.66,28.61-13.69,74.97-3.57,117.23s29.38,80.43,51.29,92.65c23.08,12.87,64.54,7.7,103.73-7.5
						C412.81,196.25,449.71,171.02,463.67,143.79z"/>
					<path class="st1" d="M460.23,141.86c13.22-25.79,12.18-54.47,1.81-81.28c-8.96-23.14-24.9-44.46-47.29-59.11
						c-21.16-13.84-45.58-16.82-68.77-19.19c-26.17-2.68-51.88-6.15-74.59-1.32c-19.91,4.24-36.82,12.57-45.76,30.02
						c-14.59,28.47-14,73.3-4.26,114.09s28.62,77.53,50.62,89.8c23.06,12.86,63.15,8.22,100.96-6.45S446.28,169.08,460.23,141.86z"
						/>
					<path class="st1" d="M456.78,139.94c13.28-25.91,12.65-54.68,2.74-81.42c-8.68-23.43-24.51-44.88-46.95-59.33
						c-21.33-13.74-45.84-16.14-69.22-17.68c-24.92-1.65-49.44-3.94-71.11,1.53c-18.64,4.71-34.58,13.08-43.17,29.86
						c-14.51,28.32-14.31,71.63-4.95,110.95c9.35,39.32,27.86,74.63,49.95,86.96c23.04,12.85,61.75,8.73,98.19-5.4
						C408.69,191.28,442.84,167.14,456.78,139.94z"/>
					<path class="st1" d="M453.33,138.02c13.34-26.03,13.12-54.9,3.68-81.56c-8.4-23.72-24.12-45.29-46.62-59.55
						c-21.5-13.63-46.1-15.5-69.67-16.16c-23.67-0.66-47-1.75-67.63,4.39c-17.36,5.16-32.33,13.59-40.58,29.69
						C218.07,43,217.9,84.8,226.87,122.64s27.1,71.74,49.27,84.11c23.02,12.84,60.36,9.25,95.41-4.35
						C406.62,188.79,439.4,165.19,453.33,138.02z"/>
					<path class="st1" d="M449.89,136.1c13.4-26.15,13.6-55.11,4.61-81.7c-8.11-24.01-23.73-45.7-46.28-59.77
						c-21.67-13.53-46.36-14.93-70.11-14.65c-22.42,0.26-44.57,0.43-64.15,7.24c-16.09,5.6-30.09,14.1-38,29.53
						c-14.36,28.03-14.92,68.3-6.33,104.67s26.34,68.84,48.6,81.26c23,12.83,58.96,9.76,92.64-3.3S435.96,163.25,449.89,136.1z"/>
					<path class="st1" d="M446.44,134.17c13.46-26.28,14.08-55.33,5.55-81.84c-7.82-24.3-23.35-46.11-45.94-59.99
						c-21.84-13.42-46.64-14.42-70.56-13.13c-21.18,1.14-42.14,2.57-60.67,10.1C260-4.67,246.97,3.91,239.41,18.67
						c-14.29,27.88-15.23,66.63-7.02,101.53s25.58,65.94,47.93,78.41c22.99,12.82,57.56,10.28,89.87-2.25
						C402.5,183.82,432.54,161.3,446.44,134.17z"/>
					<path class="st1" d="M442.99,132.25c13.53-26.4,14.57-55.54,6.49-81.98c-7.52-24.59-22.96-46.52-45.6-60.21
						c-22.01-13.31-46.93-14-71.01-11.62c-19.96,1.97-39.73,4.7-57.19,12.96c-13.57,6.41-25.61,15.11-32.82,29.2
						c-14.21,27.73-15.54,64.96-7.71,98.38c7.83,33.42,24.82,63.04,47.26,75.56c22.97,12.81,56.17,10.8,87.1-1.2
						C400.44,181.34,429.1,159.36,442.99,132.25z"/>
					<path class="st1" d="M439.55,130.33c13.59-26.52,15.06-55.76,7.42-82.12c-7.21-24.88-22.59-46.89-45.26-60.43
						c-22.21-13.17-47.25-13.66-71.46-10.1c-18.77,2.76-37.33,6.79-53.71,15.81c-12.32,6.79-23.36,15.62-30.24,29.03
						c-14.14,27.59-15.85,63.29-8.4,95.24s24.06,60.15,46.59,72.71c22.95,12.8,54.77,11.31,84.33-0.15
						C398.38,178.85,425.67,157.42,439.55,130.33z"/>
					<path class="st1" d="M436.1,128.41c13.65-26.64,15.56-55.97,8.36-82.26c-6.9-25.18-22.2-47.31-44.92-60.66
						c-22.37-13.07-47.62-13.43-71.91-8.59c-17.61,3.51-34.97,8.85-50.24,18.67c-11.11,7.14-21.12,16.13-27.65,28.87
						c-14.06,27.44-16.16,61.62-9.09,92.1s23.3,57.25,45.92,69.86c22.93,12.79,53.38,11.83,81.56,0.89S422.23,155.47,436.1,128.41z"
						/>
					<path class="st1" d="M432.65,126.48c13.71-26.76,16.06-56.19,9.29-82.4c-6.58-25.47-21.81-47.72-44.58-60.88
						c-22.54-12.97-48.06-13.3-72.35-7.07c-16.51,4.23-32.65,10.88-46.76,21.52c-9.91,7.48-18.88,16.63-25.06,28.7
						c-13.99,27.29-16.47,59.96-9.78,88.96s22.54,54.35,45.24,67.02c22.91,12.78,51.98,12.34,78.79,1.94
						C394.26,173.88,418.8,153.53,432.65,126.48z"/>
					<path class="st1" d="M429.21,124.56c13.77-26.88,16.57-56.4,10.23-82.54c-6.26-25.76-21.42-48.14-44.24-61.1
						c-22.71-12.86-48.57-13.28-72.8-5.56c-15.47,4.93-30.38,12.88-43.28,24.38c-8.76,7.81-16.64,17.14-22.48,28.54
						c-13.91,27.15-16.78,58.29-10.47,85.82s21.79,51.45,44.57,64.17c22.89,12.77,50.59,12.86,76.02,2.99
						C392.19,171.4,415.36,151.58,429.21,124.56z"/>
					<path class="st1" d="M260.09,30.21c-13.84,27-17.09,56.62-11.16,82.68c5.92,26.06,21.03,48.56,43.9,61.32
						c22.88,12.76,49.19,13.37,73.25,4.04s45.85-28.6,59.69-55.6s17.09-56.62,11.16-82.68s-21.03-48.56-43.9-61.32
						s-49.19-13.37-73.25-4.04C295.71-16.07,273.92,3.21,260.09,30.21z"/>
				</g>
				<g>
					<path class="st1" d="M286.09,611.44c15.71-30.66,9.36-98.33-6.09-161.22s-40-120.99-60.69-132.53
						c-23.33-13.02-84.08-0.49-142.51,22.18s-114.57,55.47-128.68,83.01C-80.1,477.96-9.72,552.64,74.78,599.78
						c42.25,23.57,88.02,40.25,126.77,44.16C240.27,647.85,271.96,638.98,286.09,611.44z"/>
					<path class="st1" d="M217.22,321.76c-23.31-13.01-82.68-1.01-139.74,21.13c-57.06,22.13-111.82,54.4-125.92,81.92
						c-12.35,24.1-6.27,51.82,11.29,79.32c12.37,19.37,30.43,38.57,52.04,56.02c18.86,15.2,40.38,28.67,62.5,40.41
						c41.38,21.96,85.64,37.96,123.29,41.3c37.51,3.33,68.21-5.47,81.97-32.34c15.64-30.52,9.67-96.66-5.4-158.07
						S237.99,333.35,217.22,321.76z"/>
					<path class="st1" d="M215.13,325.83c-23.3-13-81.29-1.52-136.97,20.08C22.47,367.51-30.91,399.23-45,426.73
						c-12.41,24.22-6.66,51.98,10.35,79.46c12.14,19.62,30.04,38.98,51.7,56.24c19.03,15.1,40.87,27.79,62.94,38.89
						c40.48,20.36,83.25,35.66,119.81,38.45c36.27,2.76,65.97-5.98,79.39-32.17c15.56-30.37,9.98-94.99-4.71-154.93
						C259.79,392.72,236,337.47,215.13,325.83z"/>
					<path class="st1" d="M213.05,329.9c-23.28-12.99-79.89-2.04-134.2,19.03s-106.32,52.25-120.4,79.73
						c-12.47,24.34-7.05,52.15,9.42,79.6c11.92,19.87,29.65,39.4,51.36,56.46c19.2,15,41.33,26.9,63.39,37.38
						c39.55,18.79,80.86,33.37,116.33,35.59c35.03,2.19,63.72-6.49,76.8-32.01c15.49-30.22,10.29-93.32-4.02-151.79
						C257.42,395.42,234,341.58,213.05,329.9z"/>
					<path class="st1" d="M210.96,333.96c-23.26-12.98-78.49-2.55-131.43,17.98s-103.58,51.17-117.64,78.63
						c-12.53,24.46-7.44,52.32,8.48,79.74c11.69,20.13,29.26,39.82,51.03,56.68c19.36,14.9,41.78,26.01,63.84,35.86
						c38.59,17.24,78.46,31.08,112.85,32.74c33.79,1.63,61.48-6.99,74.21-31.84c15.41-30.08,10.6-91.66-3.33-148.65
						C255.04,398.11,232,345.7,210.96,333.96z"/>
					<path class="st1" d="M208.88,338.03c-23.24-12.97-77.1-3.07-128.66,16.93s-100.83,50.1-114.88,77.53
						c-12.6,24.58-7.85,52.5,7.55,79.88c11.46,20.39,28.83,40.28,50.69,56.9c19.5,14.83,42.21,25.12,64.29,34.35
						c37.6,15.72,76.07,28.79,109.37,29.88c32.54,1.07,59.24-7.5,71.63-31.68c15.34-29.93,10.9-89.99-2.64-145.51
						C252.68,400.79,230.01,349.82,208.88,338.03z"/>
					<path class="st1" d="M206.8,342.1c-23.22-12.96-75.7-3.58-125.89,15.89s-98.08,49.02-112.12,76.44
						c-12.66,24.7-8.26,52.68,6.61,80.02c11.23,20.65,28.43,40.7,50.35,57.12c19.66,14.74,42.63,24.23,64.74,32.83
						c36.58,14.23,73.67,26.5,105.89,27.03c31.29,0.51,57-8.01,69.04-31.51c15.26-29.78,11.21-88.32-1.95-142.37
						C250.3,403.5,228.01,353.93,206.8,342.1z"/>
					<path class="st1" d="M204.71,346.17c-23.2-12.95-74.31-4.1-123.12,14.84s-95.33,47.95-109.36,75.34
						c-12.72,24.82-8.67,52.86,5.68,80.16c10.99,20.92,28.04,41.12,50.01,57.34c19.83,14.64,43.03,23.35,65.18,31.32
						c35.53,12.78,71.26,24.22,102.41,24.17c30.04-0.05,54.75-8.52,66.45-31.35c15.19-29.64,11.52-86.65-1.26-139.23
						C247.92,406.18,226.01,358.05,204.71,346.17z"/>
					<path class="st1" d="M202.63,350.23c-23.19-12.94-72.91-4.61-120.35,13.79s-92.58,46.88-106.6,74.24
						c-12.78,24.94-9.09,53.05,4.74,80.3c10.75,21.19,27.64,41.54,49.67,57.56c19.99,14.54,43.4,22.48,65.63,29.8
						c34.45,11.36,68.85,21.94,98.94,21.31c28.79-0.6,52.51-9.02,63.87-31.18c15.11-29.49,11.83-84.98-0.57-136.08
						S224.02,362.17,202.63,350.23z"/>
					<path class="st1" d="M200.54,354.3c-23.17-12.93-71.52-5.13-117.58,12.74s-89.83,45.8-103.85,73.15
						c-12.84,25.07-9.51,53.25,3.81,80.44c10.51,21.46,27.25,41.96,49.33,57.78c20.16,14.45,43.76,21.61,66.08,28.29
						c33.34,9.98,66.44,19.66,95.46,18.46c27.53-1.14,50.27-9.53,61.28-31.02c15.04-29.35,12.14-83.31,0.12-132.94
						C243.16,411.57,222.02,366.28,200.54,354.3z"/>
					<path class="st1" d="M198.46,358.37c-23.15-12.92-70.12-5.64-114.81,11.69c-44.69,17.33-87.08,44.73-101.09,72.05
						c-12.91,25.19-9.94,53.44,2.87,80.58c10.26,21.74,26.86,42.38,48.99,58c20.32,14.35,44.11,20.76,66.53,26.77
						c32.2,8.64,64.03,17.39,91.98,15.6c26.27-1.68,48.03-10.04,58.69-30.85c14.96-29.2,12.45-81.65,0.81-129.8
						C240.79,414.26,220.02,370.4,198.46,358.37z"/>
					<path class="st1" d="M196.38,362.44c-23.13-12.9-68.73-6.16-112.04,10.64S0,416.73-13.99,444.03
						c-12.97,25.31-10.38,53.64,1.93,80.72c10.01,22.01,26.47,42.8,48.65,58.23c20.49,14.25,44.43,19.92,66.98,25.26
						c31.04,7.35,61.6,15.13,88.5,12.75c25-2.21,45.79-10.55,56.11-30.69c14.89-29.05,12.76-79.98,1.5-126.66
						C238.42,416.95,218.03,374.52,196.38,362.44z"/>
					<path class="st1" d="M194.29,366.5c-23.11-12.89-67.33-6.67-109.27,9.59c-41.94,16.27-81.59,42.58-95.57,69.86
						c-13.03,25.43-10.82,53.85,1,80.86c9.75,22.29,26.07,43.22,48.31,58.45c20.66,14.15,44.74,19.1,67.42,23.74
						c29.85,6.1,59.18,12.87,85.02,9.89c23.73-2.73,43.54-11.05,53.52-30.52c14.81-28.91,13.07-78.31,2.19-123.52
						C236.04,419.65,216.03,378.63,194.29,366.5z"/>
					<path class="st1" d="M192.21,370.57c-23.09-12.88-65.94-7.19-106.5,8.54S6.87,420.61-7.1,447.87
						c-13.09,25.55-11.27,54.05,0.06,81c9.49,22.57,25.68,43.63,47.97,58.67c20.82,14.05,45.03,18.31,67.87,22.22
						c28.64,4.91,56.75,10.62,81.54,7.04c22.46-3.25,41.3-11.56,50.93-30.35c14.74-28.76,13.38-76.64,2.88-120.38
						S214.03,382.75,192.21,370.57z"/>
					<path class="st1" d="M190.12,374.64c-23.08-12.87-64.54-7.7-103.73,7.5C47.2,397.34,10.3,422.57-3.66,449.8
						c-13.15,25.67-11.72,54.26-0.87,81.14c9.23,22.86,25.29,44.05,47.63,58.89c20.99,13.95,45.31,17.55,68.32,20.71
						c27.41,3.77,54.32,8.38,78.06,4.18c21.19-3.75,39.06-12.07,48.35-30.19c14.66-28.61,13.69-74.97,3.57-117.23
						S212.04,386.86,190.12,374.64z"/>
					<path class="st1" d="M188.04,378.71c-23.06-12.86-63.15-8.22-100.96,6.45s-73.34,39.35-87.29,66.57
						c-13.22,25.79-12.18,54.47-1.81,81.28c8.96,23.14,24.9,44.46,47.29,59.11c21.16,13.84,45.58,16.82,68.77,19.19
						c26.17,2.68,51.88,6.15,74.59,1.32c19.91-4.24,36.82-12.57,45.76-30.02c14.59-28.47,14-73.3,4.26-114.09
						S210.04,390.98,188.04,378.71z"/>
					<path class="st1" d="M185.94,382.78c-23.04-12.85-61.75-8.73-98.19,5.4c-36.43,14.13-70.59,38.28-84.53,65.47
						c-13.28,25.91-12.65,54.68-2.74,81.42C9.17,558.5,25,579.95,47.43,594.4c21.33,13.74,45.84,16.14,69.22,17.68
						c24.92,1.65,49.44,3.94,71.11-1.53c18.64-4.71,34.58-13.08,43.17-29.86c14.51-28.32,14.31-71.63,4.95-110.95
						C226.55,430.41,208.04,395.1,185.94,382.78z"/>
					<path class="st1" d="M183.87,386.84c-23.02-12.84-60.36-9.25-95.41,4.35s-67.84,37.2-81.77,64.38
						C-6.65,481.6-6.44,510.47,3,537.13c8.4,23.72,24.12,45.29,46.62,59.55c21.5,13.63,46.1,15.5,69.67,16.16
						c23.67,0.66,47,1.75,67.63-4.39c17.36-5.16,32.33-13.59,40.58-29.69c14.44-28.17,14.61-69.97,5.64-107.81
						S206.05,399.21,183.87,386.84z"/>
					<path class="st1" d="M181.79,390.91c-23-12.83-58.96-9.76-92.64,3.3c-33.68,13.07-65.1,36.13-79.01,63.28
						c-13.4,26.15-13.6,55.11-4.61,81.7c8.11,24.01,23.73,45.7,46.28,59.77c21.67,13.53,46.36,14.93,70.11,14.65
						c22.42-0.26,44.57-0.43,64.15-7.24c16.09-5.6,30.09-14.1,38-29.53c14.36-28.03,14.92-68.3,6.33-104.67
						S204.05,403.33,181.79,390.91z"/>
					<path class="st1" d="M179.69,394.98c-22.99-12.82-57.56-10.28-89.87,2.25s-62.35,35.05-76.25,62.18
						C0.12,485.69-0.5,514.74,8.02,541.25c7.82,24.3,23.35,46.11,45.94,59.99c21.84,13.42,46.64,14.42,70.56,13.13
						c21.18-1.14,42.14-2.57,60.67-10.1c14.82-6.02,27.85-14.6,35.41-29.36c14.29-27.88,15.23-66.63,7.02-101.53
						C219.42,438.49,202.05,407.45,179.69,394.98z"/>
					<path class="st1" d="M177.62,399.05c-22.97-12.81-56.17-10.8-87.1,1.2s-59.6,33.98-73.49,61.09
						c-13.53,26.4-14.57,55.54-6.49,81.98c7.52,24.59,22.96,46.52,45.6,60.21c22.01,13.31,46.93,14,71.01,11.62
						c19.96-1.97,39.73-4.7,57.19-12.96c13.57-6.41,25.61-15.11,32.82-29.2c14.21-27.73,15.54-64.96,7.71-98.38
						C217.05,441.18,200.06,411.56,177.62,399.05z"/>
					<path class="st1" d="M175.53,403.11c-22.95-12.8-54.77-11.31-84.33,0.15c-29.56,11.47-56.85,32.9-70.73,59.99
						c-13.59,26.52-15.06,55.76-7.42,82.12c7.21,24.88,22.59,46.89,45.26,60.43c22.21,13.17,47.25,13.66,71.46,10.1
						c18.77-2.76,37.33-6.79,53.71-15.81c12.32-6.79,23.36-15.62,30.24-29.03c14.14-27.59,15.85-63.29,8.4-95.24
						S198.06,415.68,175.53,403.11z"/>
					<path class="st1" d="M173.44,407.18c-22.93-12.79-53.38-11.83-81.56-0.89c-28.18,10.93-54.1,31.83-67.97,58.89
						c-13.65,26.64-15.56,55.97-8.36,82.26c6.9,25.18,22.2,47.31,44.92,60.66c22.37,13.07,47.62,13.43,71.91,8.59
						c17.61-3.51,34.97-8.85,50.24-18.67c11.11-7.14,21.12-16.13,27.65-28.87c14.06-27.44,16.16-61.62,9.09-92.1
						C212.3,446.57,196.06,419.8,173.44,407.18z"/>
					<path class="st1" d="M171.36,411.25c-22.91-12.78-51.98-12.34-78.79-1.94s-51.35,30.75-65.21,57.8
						c-13.71,26.76-16.06,56.19-9.29,82.4c6.58,25.47,21.81,47.72,44.58,60.88c22.54,12.97,48.06,13.3,72.35,7.07
						c16.51-4.23,32.65-10.88,46.76-21.52c9.91-7.48,18.88-16.63,25.06-28.7c13.99-27.29,16.47-59.96,9.78-88.96
						S194.06,423.91,171.36,411.25z"/>
					<path class="st1" d="M169.28,415.32c-22.89-12.77-50.59-12.86-76.02-2.99s-48.6,29.68-62.45,56.7
						c-13.77,26.88-16.57,56.4-10.23,82.54c6.26,25.76,21.42,48.14,44.24,61.1c22.71,12.86,48.57,13.28,72.8,5.56
						c15.47-4.93,30.38-12.88,43.28-24.38c8.76-7.81,16.64-17.14,22.48-28.54c13.91-27.15,16.78-58.29,10.47-85.82
						C207.55,451.95,192.06,428.03,169.28,415.32z"/>
					<path class="st1" d="M199.93,563.38c13.84-27,17.09-56.62,11.16-82.68c-5.92-26.06-21.03-48.56-43.9-61.32
						s-49.19-13.37-73.25-4.04s-45.85,28.6-59.69,55.6c-13.83,27-17.09,56.62-11.16,82.68s21.03,48.56,43.9,61.32
						c22.88,12.76,49.19,13.37,73.25,4.04C164.3,609.65,186.1,590.38,199.93,563.38z"/>
				</g>
				<g>
					<path class="st1" d="M-132.86,331.47c29.92,16.69,95.34,11.15,155.99-3.87s116.53-39.51,127.4-60.71
						c12.25-23.91-0.79-86.86-23.61-147.57S71.49,0.12,44.62-14.88C-9.13-44.87-80.37,26.73-124.74,113.32
						c-22.18,43.29-37.65,90.34-40.85,130.3C-168.81,283.58-159.74,316.47-132.86,331.47z"/>
					<path class="st1" d="M123.99,119.98C101.69,60.69,69.64,3.63,42.79-11.35C19.37-24.42-7.26-18.65-33.53-1.09
						c-18.36,12.28-36.48,30.33-52.91,52.03c-14.76,19.53-27.77,41.94-39.03,65.07c-20.63,42.37-35.48,87.89-38.15,126.73
						c-2.67,38.7,6.33,70.57,32.56,85.2c29.78,16.61,93.73,11.44,152.96-3.21s113.74-38.77,124.65-60.06
						C158.79,240.78,146.28,179.26,123.99,119.98z"/>
					<path class="st1" d="M121.07,120.64C99.32,62.78,67.81,7.15,40.98-7.82c-23.55-13.14-50.22-7.7-76.48,9.3
						C-54.11,13.53-72.42,31.42-88.65,53.2c-14.64,19.69-26.87,42.41-37.52,65.51c-19.1,41.43-33.31,85.44-35.46,123.16
						c-2.14,37.44,6.8,68.27,32.38,82.54c29.64,16.53,92.12,11.74,149.92-2.54c57.81-14.28,110.95-38.03,121.9-59.41
						C154.81,238.58,142.82,178.5,121.07,120.64z"/>
					<path class="st1" d="M118.17,121.3C96.96,64.87,65.99,10.66,39.18-4.29c-23.67-13.2-50.39-8.11-76.64,8.34
						c-18.86,11.82-37.33,29.55-53.39,51.4c-14.53,19.85-25.97,42.86-36.01,65.95c-17.6,40.45-31.14,82.98-32.77,119.59
						c-1.61,36.17,7.27,65.98,32.2,79.89c29.49,16.45,90.51,12.03,146.89-1.87c56.39-13.9,108.15-37.29,119.15-58.76
						C150.82,236.39,139.38,177.73,118.17,121.3z"/>
					<path class="st1" d="M115.26,121.97c-20.67-55-51.1-107.78-77.89-122.73C13.57-14.03-13.2-9.28-39.44,6.62
						C-58.56,18.21-77.2,35.78-93.07,57.7c-14.41,20.02-25.07,43.3-34.5,66.39c-16.12,39.45-28.98,80.53-30.07,116.02
						c-1.08,34.9,7.74,63.68,32.02,77.23c29.35,16.37,88.89,12.33,143.86-1.21s105.36-36.55,116.41-58.11
						C146.86,234.19,135.93,176.97,115.26,121.97z"/>
					<path class="st1" d="M112.35,122.63C92.2,69.06,62.32,17.71,35.55,2.77C11.64-10.57-15.21-6.17-41.41,9.19
						c-19.4,11.36-38.19,28.77-53.87,50.77c-14.3,20.18-24.17,43.72-32.99,66.83c-14.67,38.42-26.81,78.07-27.38,112.45
						c-0.56,33.63,8.21,61.39,31.84,74.57c29.21,16.29,87.28,12.62,140.83-0.54s102.57-35.81,113.66-57.46
						C142.88,232,132.48,176.2,112.35,122.63z"/>
					<path class="st1" d="M109.43,123.29C89.83,71.15,60.49,21.22,33.74,6.3C9.7-7.11-17.21-3.06-43.39,11.76
						C-63.05,22.88-82,40.14-97.51,62.21c-14.18,20.34-23.28,44.12-31.48,67.26c-13.25,37.36-23.72,75.62-24.69,108.88
						c-0.94,32.34,8.68,59.09,31.66,71.92c29.06,16.22,85.67,12.91,137.8,0.12s99.77-35.07,110.91-56.8
						C138.9,229.8,129.03,175.44,109.43,123.29z"/>
					<path class="st1" d="M106.52,123.96C87.45,73.25,58.67,24.75,31.94,9.84C7.78-3.64-19.2,0.05-45.35,14.34
						C-65.27,25.23-84.43,42.3-99.71,64.47c-14.11,20.48-22.39,44.5-29.97,67.7c-11.86,36.27-21.43,73.14-21.99,105.31
						c-0.55,31.07,9.14,56.8,31.48,69.26c28.92,16.14,84.06,13.21,134.77,0.79c50.71-12.42,96.98-34.33,108.16-56.15
						C134.92,227.6,125.57,174.67,106.52,123.96z"/>
					<path class="st1" d="M103.61,124.62C85.07,75.33,56.84,28.26,30.13,13.36C5.85-0.18-21.21,3.14-47.32,16.9
						c-20.2,10.64-39.51,27.57-54.6,49.82c-14,20.64-21.51,44.87-28.46,68.14c-10.51,35.16-20.34,70.67-19.3,101.74
						c0.99,29.79,9.61,54.51,31.3,66.61c28.78,16.06,82.45,13.5,131.74,1.46s94.18-33.59,105.41-55.5
						C130.93,225.41,122.13,173.91,103.61,124.62z"/>
					<path class="st1" d="M100.69,125.29C82.7,77.43,55.01,31.79,28.31,16.9C3.91,3.29-23.23,6.24-49.31,19.48
						c-20.47,10.4-39.94,27.18-54.84,49.5c-13.89,20.8-20.64,45.23-26.95,68.58c-9.2,34.01-18.19,68.2-16.61,98.17
						c1.5,28.51,10.08,52.21,31.12,63.95c28.64,15.98,80.84,13.8,128.71,2.12c47.87-11.67,91.39-32.85,102.67-54.85
						C126.95,223.21,118.68,173.14,100.69,125.29z"/>
					<path class="st1" d="M97.78,125.95C80.33,79.52,53.17,35.31,26.51,20.43C1.99,6.75-25.23,9.32-51.27,22.05
						c-20.75,10.14-40.37,26.79-55.08,49.18c-13.78,20.96-19.78,45.56-25.45,69.02c-7.93,32.85-16.04,65.73-13.91,94.6
						c2,27.23,10.55,49.92,30.94,61.3c28.49,15.9,79.23,14.09,125.68,2.79s88.6-32.1,99.92-54.2
						C122.98,221.02,115.24,172.38,97.78,125.95z"/>
					<path class="st1" d="M94.87,126.61c-16.92-45-43.53-87.79-70.17-102.65C0.05,10.21-27.25,12.4-53.24,24.62
						c-21.03,9.89-40.79,26.4-55.32,48.87c-13.66,21.12-18.94,45.88-23.94,69.46c-6.71,31.66-13.9,63.25-11.22,91.03
						c2.5,25.94,11.02,47.62,30.76,58.64c28.35,15.82,77.62,14.39,122.64,3.45c45.02-10.93,85.8-31.36,97.17-53.55
						C119,218.82,111.79,171.61,94.87,126.61z"/>
					<path class="st1" d="M91.95,127.28C75.57,83.71,49.51,42.35,22.89,27.5c-24.76-13.82-52.17-12.02-78.1-0.3
						c-21.31,9.63-41.22,26.01-55.56,48.55c-13.55,21.29-18.12,46.19-22.43,69.9c-5.53,30.45-11.76,60.77-8.53,87.46
						c2.99,24.65,11.48,45.33,30.58,55.98c28.21,15.74,76.01,14.68,119.61,4.12s83.01-30.62,94.42-52.9
						C115.02,216.63,108.33,170.85,91.95,127.28z"/>
					<path class="st1" d="M89.05,127.94C73.21,85.8,47.69,45.86,21.08,31.02C-3.81,17.14-31.3,18.54-57.18,29.76
						c-21.6,9.36-41.64,25.63-55.81,48.23c-13.44,21.45-17.33,46.48-20.92,70.34c-4.4,29.22-9.63,58.28-5.83,83.89
						c3.47,23.36,11.95,43.04,30.4,53.33c28.06,15.66,74.4,14.97,116.58,4.79c42.18-10.19,80.22-29.88,91.68-52.25
						C111.05,214.43,104.89,170.08,89.05,127.94z"/>
					<path class="st1" d="M86.13,128.6c-15.3-40.71-40.28-79.22-66.86-94.05C-5.74,20.6-33.33,21.6-59.16,32.33
						c-21.89,9.09-42.07,25.24-56.05,47.92c-13.32,21.61-10.95,48.12-19.41,70.78c-9.85,26.39-7.52,55.8-3.14,80.32
						c3.94,22.06,12.42,40.74,30.22,50.67C-79.63,297.6-34.76,297.29,6,287.47s77.42-29.14,88.93-51.6
						C107.06,212.23,101.43,169.32,86.13,128.6z"/>
					<path class="st1" d="M83.22,129.27c-14.77-39.28-39.2-76.36-65.76-91.18c-25.13-14.02-52.82-13.43-78.59-3.18
						c-22.18,8.82-42.49,24.85-56.29,47.6c-13.21,21.78-10.05,48.24-17.9,71.22c-8.67,25.37-5.41,53.31-0.45,76.75
						c4.39,20.76,12.89,38.45,30.04,48.02c27.78,15.5,71.18,15.56,110.52,6.12c39.34-9.45,74.63-28.4,86.18-50.95
						C103.08,210.04,97.99,168.55,83.22,129.27z"/>
					<path class="st1" d="M80.31,129.93C66.08,92.08,42.19,56.42,15.65,41.62C-9.6,27.53-37.39,27.71-63.1,37.48
						c-22.47,8.54-42.92,24.46-56.53,47.28c-13.09,21.94-9.26,48.33-16.39,71.66c-7.45,24.38-3.31,50.81,2.25,73.18
						c4.84,19.47,13.36,36.15,29.86,45.36c27.64,15.42,69.57,15.86,107.49,6.78c37.92-9.07,71.84-27.66,83.43-50.29
						C99.11,207.84,94.54,167.79,80.31,129.93z"/>
					<path class="st1" d="M77.4,130.6C63.71,94.17,40.36,59.95,13.85,45.15c-25.37-14.16-53.27-14.4-78.91-5.1
						c-22.76,8.25-43.34,24.08-56.77,46.97c-12.97,22.11-8.62,48.37-14.88,72.1c-6.17,23.39-1.23,48.32,4.94,69.61
						c5.27,18.17,13.83,33.86,29.68,42.71c27.49,15.34,67.96,16.15,104.46,7.45c36.5-8.7,69.04-26.92,80.69-49.64
						C95.13,205.65,91.08,167.02,77.4,130.6z"/>
					<path class="st1" d="M74.48,131.26c-13.16-35-35.95-67.8-62.45-82.58c-25.5-14.22-53.49-14.89-79.07-6.06
						c-23.06,7.96-43.76,23.69-57.01,46.65c-12.86,22.27-8.15,48.37-13.37,72.54c-4.85,22.42,0.83,45.84,7.63,66.04
						c5.68,16.88,14.29,31.56,29.5,40.05c27.35,15.26,66.35,16.45,101.43,8.12s66.25-26.18,77.94-48.99
						C91.15,203.45,87.64,166.26,74.48,131.26z"/>
					<path class="st1" d="M71.56,131.92C58.94,98.35,36.69,66.98,10.22,52.21C-15.4,37.92-43.5,36.82-69.02,45.19
						c-23.35,7.66-44.14,23.33-57.26,46.33c-12.7,22.46-7.87,48.37-11.86,72.98c-3.48,21.44,2.87,43.35,10.33,62.47
						c6.08,15.59,14.76,29.27,29.32,37.39c27.21,15.18,64.73,16.74,98.4,8.78c33.66-7.96,63.45-25.44,75.19-48.34
						C87.17,201.26,84.18,165.49,71.56,131.92z"/>
					<path class="st1" d="M68.66,132.59C56.58,100.45,34.87,70.51,8.42,55.75c-25.74-14.36-53.94-15.89-79.4-7.98
						c-23.65,7.36-44.57,22.94-57.5,46.02c-12.58,22.63-12.96,48.39-10.36,73.42c2.13,20.45,4.89,40.88,13.02,58.9
						c6.46,14.31,15.23,26.98,29.14,34.74c27.06,15.1,63.12,17.03,95.36,9.45c32.24-7.59,60.66-24.7,72.44-47.69
						C83.18,199.06,80.74,164.73,68.66,132.59z"/>
					<path class="st1" d="M65.75,133.25C54.2,102.54,33.04,74.02,6.61,59.27c-25.86-14.43-54.17-16.41-79.56-8.94
						c-23.95,7.04-44.99,22.55-57.74,45.7c-12.47,22.79-12.61,48.72-8.85,73.86c2.88,19.24,6.88,38.43,15.71,55.33
						c6.82,13.04,15.7,24.68,28.96,32.08c26.92,15.02,61.51,17.33,92.33,10.11s57.87-23.96,69.69-47.04
						C79.2,196.86,77.29,163.96,65.75,133.25z"/>
					<path class="st1" d="M62.82,133.91C51.81,104.63,31.19,77.54,4.78,62.8c-25.98-14.5-54.4-16.92-79.72-9.9
						c-24.24,6.73-45.42,22.16-57.98,45.38c-12.35,22.95-12.35,49.09-7.34,74.3c3.59,18.07,8.84,36,18.41,51.76
						c7.16,11.79,16.17,22.39,28.78,29.43c26.78,14.94,59.9,17.62,89.3,10.78s55.07-23.22,66.95-46.39
						C75.24,194.67,73.83,163.2,62.82,133.91z"/>
					<path class="st1" d="M59.92,134.58C49.45,106.73,29.38,81.06,2.98,66.34c-26.1-14.56-54.62-17.45-79.89-10.86
						c-24.54,6.4-45.84,21.77-58.22,45.07c-12.24,23.12-12.19,49.52-5.83,74.74c4.27,16.94,10.77,33.6,21.1,48.19
						c7.48,10.57,16.64,20.09,28.6,26.77c26.63,14.86,58.29,17.92,86.27,11.45s52.28-22.47,64.2-45.74
						C71.26,192.47,70.39,162.43,59.92,134.58z"/>
					<path class="st1" d="M57.01,135.24c-9.93-26.42-29.46-50.66-55.83-65.37C-25.05,55.24-53.67,51.9-78.87,58.05
						c-24.84,6.07-46.27,21.38-58.46,44.75c-12.13,23.28-12.14,50.02-4.32,75.18c4.94,15.87,12.68,31.26,23.79,44.62
						c7.8,9.38,17.1,17.8,28.42,24.12c26.49,14.78,56.68,18.21,83.24,12.11s49.49-21.73,61.45-45.09
						C67.28,190.28,66.93,161.67,57.01,135.24z"/>
					<path class="st1" d="M-87.63,243.18c26.35,14.7,55.07,18.51,80.21,12.78c25.14-5.73,46.69-20.99,58.7-44.44
						c12.01-23.44,12.21-50.62,2.81-75.62S25.71,88.1-0.64,73.4s-55.07-18.51-80.21-12.78s-46.69,20.99-58.7,44.44
						c-12.01,23.44-12.21,50.62-2.81,75.62S-113.97,228.48-87.63,243.18z"/>
				</g>
				<g>
					<path class="st1" d="M585.06,286.63c-29.92-16.69-95.34-11.15-155.99,3.87s-116.53,39.51-127.4,60.71
						c-12.25,23.91,0.79,86.86,23.61,147.57c22.82,60.72,55.43,119.2,82.3,134.2c53.75,29.99,124.99-41.61,169.36-128.2
						c22.18-43.29,37.65-90.34,40.85-130.3S611.94,301.63,585.06,286.63z"/>
					<path class="st1" d="M583.25,290.16c-29.78-16.61-93.73-11.44-152.96,3.21s-113.74,38.77-124.65,60.06
						c-12.24,23.89,0.27,85.41,22.56,144.69s54.35,116.35,81.2,131.33c23.42,13.07,50.05,7.3,76.32-10.26
						c18.36-12.28,36.48-30.33,52.91-52.03c14.76-19.53,27.77-41.94,39.03-65.07c20.63-42.37,35.48-87.89,38.15-126.73
						C618.48,336.66,609.48,304.8,583.25,290.16z"/>
					<path class="st1" d="M581.44,293.7c-29.64-16.53-92.12-11.74-149.92,2.54c-57.81,14.28-110.95,38.03-121.9,59.41
						c-12.23,23.87-0.25,83.96,21.5,141.82s53.26,113.49,80.1,128.46c23.55,13.14,50.22,7.7,76.48-9.3
						c18.61-12.05,36.91-29.94,53.15-51.72c14.64-19.69,26.87-42.41,37.52-65.51c19.1-41.43,33.31-85.44,35.46-123.16
						C615.96,338.8,607.02,307.97,581.44,293.7z"/>
					<path class="st1" d="M579.63,297.23c-29.49-16.45-90.51-12.03-146.89,1.87c-56.39,13.9-108.15,37.29-119.15,58.76
						c-12.22,23.85-0.77,82.51,20.44,138.94s52.18,110.64,78.99,125.59c23.67,13.2,50.39,8.11,76.64-8.34
						c18.86-11.82,37.33-29.55,53.39-51.4c14.53-19.85,25.97-42.86,36.01-65.95c17.6-40.45,31.14-82.98,32.77-119.59
						C613.44,340.94,604.56,311.14,579.63,297.23z"/>
					<path class="st1" d="M577.82,300.76c-29.35-16.37-88.89-12.33-143.86,1.21c-54.97,13.53-105.36,36.55-116.41,58.11
						c-12.21,23.84-1.29,81.06,19.39,136.06c20.67,55,51.1,107.78,77.89,122.73c23.79,13.27,50.57,8.52,76.8-7.38
						c19.12-11.59,37.76-29.16,53.63-51.08c14.41-20.02,25.07-43.3,34.5-66.39c16.12-39.45,28.98-80.53,30.07-116.02
						C610.92,343.09,602.11,314.31,577.82,300.76z"/>
					<path class="st1" d="M576.01,304.29c-29.21-16.29-87.28-12.62-140.83,0.54s-102.57,35.81-113.66,57.46
						c-12.2,23.82-1.81,79.61,18.33,133.18s50.02,104.92,76.79,119.86c23.91,13.34,50.76,8.94,76.97-6.42
						c19.39-11.36,38.18-28.77,53.87-50.77c14.3-20.18,24.17-43.72,32.99-66.83c14.67-38.42,26.81-78.07,27.38-112.45
						C608.41,345.24,599.65,317.48,576.01,304.29z"/>
					<path class="st1" d="M574.2,307.82c-29.06-16.22-85.67-12.91-137.8-0.12s-99.77,35.07-110.91,56.8
						c-12.19,23.8-2.33,78.16,17.27,130.3s48.94,102.07,75.69,116.99c24.03,13.41,50.95,9.36,77.13-5.46
						c19.65-11.12,38.61-28.38,54.12-50.45c14.18-20.34,23.28-44.12,31.48-67.26c13.25-37.36,24.65-75.61,24.69-108.88
						C605.9,347.39,597.19,320.65,574.2,307.82z"/>
					<path class="st1" d="M572.4,311.35c-28.92-16.14-84.06-13.21-134.77-0.79c-50.71,12.42-96.98,34.33-108.16,56.15
						c-12.18,23.78-2.85,76.71,16.21,127.43s47.85,99.21,74.58,114.12c24.16,13.48,51.14,9.79,77.29-4.5
						c19.92-10.89,39.08-27.96,54.36-50.13c14.11-20.48,22.39-44.5,29.97-67.7c11.86-36.27,22.49-73.14,21.99-105.31
						C603.4,349.54,594.73,323.82,572.4,311.35z"/>
					<path class="st1" d="M570.59,314.88c-28.78-16.06-82.45-13.5-131.74-1.46c-49.29,12.05-94.18,33.59-105.41,55.5
						c-12.17,23.76-3.37,75.26,15.16,124.55s46.77,96.36,73.48,111.26c24.28,13.54,51.34,10.22,77.45-3.54
						c20.2-10.64,39.51-27.57,54.6-49.82c14-20.64,21.51-44.87,28.46-68.14c10.51-35.16,20.34-70.67,19.3-101.74
						C600.89,351.7,592.28,326.98,570.59,314.88z"/>
					<path class="st1" d="M568.78,318.42c-28.64-15.98-80.84-13.8-128.71-2.12c-47.87,11.67-91.39,32.85-102.67,54.85
						c-12.17,23.74-3.89,73.81,14.1,121.67s45.69,93.5,72.38,108.39c24.4,13.61,51.54,10.66,77.62-2.58
						c20.47-10.4,39.94-27.18,54.84-49.5c13.89-20.8,20.64-45.23,26.96-68.58c9.2-34.01,18.19-68.2,16.61-98.17
						C598.4,353.85,589.82,330.15,568.78,318.42z"/>
					<path class="st1" d="M566.97,321.95c-28.49-15.9-79.23-14.09-125.68-2.79s-88.6,32.1-99.92,54.2
						c-12.16,23.72-4.41,72.36,13.04,118.79s44.61,90.64,71.27,105.52c24.52,13.68,51.74,11.11,77.78-1.62
						c20.75-10.15,40.37-26.79,55.08-49.18c13.78-20.96,19.78-45.56,25.45-69.02c7.93-32.85,16.04-65.73,13.91-94.6
						C595.91,356.02,587.36,333.32,566.97,321.95z"/>
					<path class="st1" d="M565.16,325.48c-28.35-15.82-77.62-14.39-122.64-3.45c-45.02,10.93-85.8,31.36-97.17,53.55
						c-12.15,23.7-4.93,70.91,11.99,115.91s43.53,87.79,70.17,102.65c24.64,13.75,51.95,11.56,77.94-0.66
						c21.03-9.89,40.79-26.4,55.32-48.87c13.66-21.12,18.94-45.88,23.94-69.46c6.71-31.66,13.9-63.25,11.22-91.03
						C593.42,358.18,584.9,336.49,565.16,325.48z"/>
					<path class="st1" d="M563.35,329.01c-28.21-15.74-76.01-14.68-119.61-4.12s-83.01,30.62-94.42,52.9
						c-12.14,23.69-5.45,69.46,10.93,113.03s42.45,84.93,69.07,99.78c24.76,13.82,52.17,12.02,78.1,0.3
						c21.31-9.63,41.22-26.01,55.56-48.55c13.55-21.29,18.12-46.19,22.43-69.9c5.53-30.45,11.76-60.77,8.53-87.46
						C590.94,360.34,582.45,339.66,563.35,329.01z"/>
					<path class="st1" d="M561.54,332.54c-28.06-15.66-74.4-14.97-116.58-4.79s-80.22,29.88-91.68,52.25
						c-12.13,23.67-5.97,68.01,9.87,110.16s41.36,82.08,67.97,96.92c24.89,13.88,52.38,12.48,78.26,1.26
						c21.6-9.36,41.64-25.63,55.81-48.23c13.44-21.45,17.33-46.48,20.92-70.34c4.4-29.22,9.63-58.28,5.83-83.89
						C588.47,362.51,579.99,342.83,561.54,332.54z"/>
					<path class="st1" d="M559.73,336.07c-27.92-15.58-72.79-15.27-113.55-5.45s-77.42,29.14-88.93,51.6
						c-12.12,23.65-6.49,66.57,8.82,107.28c15.3,40.71,40.28,79.22,66.86,94.05c25.01,13.95,52.6,12.95,78.43,2.22
						c21.89-9.09,42.07-25.24,56.05-47.92c13.32-21.61,16.56-46.76,19.41-70.78c3.32-27.97,7.52-55.8,3.14-80.32
						C586.02,364.68,577.53,346,559.73,336.07z"/>
					<path class="st1" d="M557.92,339.6c-27.78-15.5-71.18-15.56-110.52-6.12c-39.34,9.45-74.63,28.4-86.18,50.95
						c-12.11,23.63-7.01,65.12,7.76,104.4s39.2,76.36,65.76,91.18c25.13,14.02,52.82,13.43,78.59,3.18
						c22.18-8.82,42.49-24.85,56.29-47.6c13.21-21.78,15.83-47.03,17.9-71.22c2.29-26.72,5.41-53.31,0.45-76.75
						C583.57,366.86,575.07,349.17,557.92,339.6z"/>
					<path class="st1" d="M556.11,343.14c-27.64-15.42-69.57-15.86-107.49-6.78c-37.92,9.07-71.84,27.66-83.43,50.29
						c-12.1,23.61-7.53,63.67,6.7,101.52s38.12,73.51,64.66,88.31c25.25,14.09,53.04,13.91,78.75,4.14
						c22.47-8.54,42.92-24.46,56.53-47.28c13.09-21.94,15.14-47.29,16.39-71.66c1.31-25.45,3.31-50.81-2.25-73.18
						C581.13,369.03,572.62,352.34,556.11,343.14z"/>
					<path class="st1" d="M554.3,346.67c-27.49-15.34-67.96-16.15-104.46-7.45s-69.04,26.92-80.69,49.64
						c-12.09,23.59-8.05,62.22,5.65,98.64c13.69,36.43,37.04,70.65,63.55,85.45c25.37,14.16,53.27,14.4,78.91,5.1
						c22.76-8.25,43.34-24.08,56.77-46.97c12.97-22.11,14.5-47.56,14.88-72.1c0.38-24.19,1.23-48.32-4.94-69.61
						C578.71,371.2,570.16,355.51,554.3,346.67z"/>
					<path class="st1" d="M552.49,350.2c-27.35-15.26-66.35-16.45-101.43-8.12c-35.08,8.33-66.25,26.18-77.94,48.99
						c-12.08,23.57-8.57,60.77,4.59,95.77s35.95,67.8,62.45,82.58c25.5,14.22,53.49,14.89,79.07,6.06
						c23.06-7.96,43.76-23.69,57.01-46.65c12.86-22.27,13.92-47.82,13.37-72.54c-0.51-22.93-0.83-45.84-7.63-66.04
						C576.31,373.37,567.7,358.68,552.49,350.2z"/>
					<path class="st1" d="M550.68,353.73c-27.21-15.18-64.74-16.74-98.4-8.78s-63.45,25.44-75.19,48.34
						c-12.07,23.55-9.09,59.32,3.53,92.89s34.87,64.94,61.35,79.71c25.62,14.29,53.72,15.39,79.24,7.02
						c23.35-7.66,44.14-23.33,57.25-46.33c12.7-22.46,13.4-48.1,11.86-72.98c-1.34-21.68-2.87-43.35-10.33-62.47
						C573.92,375.53,565.24,361.85,550.68,353.73z"/>
					<path class="st1" d="M548.87,357.26c-27.06-15.1-63.12-17.03-95.36-9.45c-32.24,7.59-60.66,24.7-72.44,47.69
						c-12.06,23.54-9.61,57.87,2.47,90.01s33.79,62.08,60.24,76.84c25.74,14.36,53.94,15.89,79.4,7.98
						c23.65-7.36,44.57-22.94,57.5-46.02c12.58-22.63,12.96-48.39,10.36-73.42c-2.13-20.45-4.89-40.88-13.02-58.9
						C571.56,377.69,562.79,365.02,548.87,357.26z"/>
					<path class="st1" d="M547.06,360.79c-26.92-15.02-61.51-17.33-92.33-10.11s-57.87,23.96-69.69,47.04
						c-12.05,23.52-10.13,56.42,1.42,87.13c11.54,30.71,32.71,59.23,59.14,73.98c25.86,14.43,54.17,16.41,79.56,8.94
						c23.95-7.04,44.99-22.55,57.74-45.7c12.47-22.79,12.61-48.72,8.85-73.86c-2.88-19.24-6.88-38.43-15.71-55.33
						C569.21,379.83,560.33,368.19,547.06,360.79z"/>
					<path class="st1" d="M545.25,364.32c-26.78-14.94-59.9-17.62-89.3-10.78s-55.07,23.22-66.95,46.39
						c-12.04,23.5-10.65,54.97,0.36,84.25c11.01,29.28,31.63,56.37,58.04,71.11c25.98,14.5,54.4,16.92,79.72,9.9
						c24.24-6.73,45.42-22.16,57.98-45.38c12.35-22.95,12.35-49.09,7.34-74.3c-3.59-18.07-8.84-36-18.41-51.76
						C566.88,381.96,557.87,371.36,545.25,364.32z"/>
					<path class="st1" d="M543.44,367.86c-26.63-14.86-58.29-17.92-86.27-11.45c-27.98,6.47-52.28,22.47-64.2,45.74
						c-12.03,23.48-11.17,53.52-0.7,81.37s30.54,53.52,56.94,68.24c26.1,14.56,54.62,17.45,79.89,10.86
						c24.54-6.4,45.84-21.77,58.22-45.07c12.24-23.12,12.19-49.52,5.83-74.74c-4.27-16.94-10.77-33.6-21.1-48.19
						C564.57,384.06,555.41,374.53,543.44,367.86z"/>
					<path class="st1" d="M541.63,371.39c-26.49-14.78-56.68-18.21-83.24-12.11s-49.49,21.73-61.45,45.09
						c-12.02,23.46-11.69,52.07-1.75,78.5s29.46,50.66,55.83,65.37c26.23,14.63,54.85,17.97,80.05,11.82
						c24.84-6.07,46.27-21.38,58.46-44.75c12.13-23.28,12.14-50.02,4.32-75.18c-4.94-15.87-12.68-31.26-23.79-44.62
						C562.26,386.13,552.95,377.7,541.63,371.39z"/>
					<path class="st1" d="M539.83,374.92c-26.35-14.7-55.07-18.51-80.21-12.78s-46.69,20.99-58.7,44.44s-12.21,50.62-2.81,75.62
						s28.38,47.8,54.73,62.5s55.07,18.51,80.21,12.78s46.69-20.99,58.7-44.44c12.01-23.44,12.21-50.62,2.81-75.62
						S566.17,389.62,539.83,374.92z"/>
				</g>
			</g>
		</g>
	</g>
</g>
</svg>
